<svg version="1.1" id="Layer_1" xmlns="http://www.w3.org/2000/svg" xmlns:xlink="http://www.w3.org/1999/xlink" x="0px" y="0px"
	 width="100%" viewBox="0 0 500 500" enable-background="new 0 0 500 500" xml:space="preserve">
<path fill="#000000" opacity="1.000000" stroke="none" 
	d="
M263.000000,501.000000 
	C176.666687,501.000000 90.833336,500.973846 5.000198,501.095886 
	C1.576055,501.100769 0.903036,500.423828 0.905301,497.000000 
	C1.013778,333.000092 1.013773,169.000122 0.905334,5.000243 
	C0.903071,1.576935 1.575804,0.903022 4.999880,0.905287 
	C168.999756,1.013774 332.999725,1.013761 496.999634,0.905353 
	C500.422668,0.903090 501.096985,1.575436 501.094727,4.999761 
	C500.986206,168.999634 500.986237,332.999603 501.094604,496.999512 
	C501.096893,500.422272 500.425537,501.101685 497.000275,501.096161 
	C419.167023,500.971130 341.333466,501.000000 263.000000,501.000000 
z"/>
<path fill="#F12428" opacity="1.000000" stroke="none" 
	d="
M313.697571,184.237396 
	C313.906281,183.963150 314.080902,183.502899 314.159424,183.269623 
	C314.335052,182.845963 314.432190,182.655563 314.755066,182.237457 
	C314.980774,182.009766 314.980316,181.979340 314.995483,181.978424 
	C315.253052,181.765137 315.474426,181.532776 315.824829,181.091827 
	C319.408081,175.344284 322.841309,169.785309 326.577393,164.089661 
	C328.770721,161.692337 330.450409,159.297760 331.793976,156.286804 
	C332.006958,156.019302 331.999237,155.995880 332.010437,156.001617 
	C334.851685,151.931488 338.063507,148.125427 340.530396,143.791702 
	C344.195038,137.353745 344.022125,137.032501 336.819885,136.994781 
	C323.875244,136.926987 310.927979,137.221375 297.634613,136.831299 
	C297.060150,137.024460 296.837311,137.113937 296.293945,137.356415 
	C291.581787,140.648224 289.634399,145.644211 286.664978,150.163010 
	C286.714691,150.500168 286.700287,150.685577 286.608521,150.700577 
	C283.619781,150.540726 283.539978,153.067200 282.390442,154.750076 
	C280.247528,157.887238 278.052643,160.968674 276.243896,164.704636 
	C276.058685,164.991425 276.064392,165.060120 276.030212,165.064514 
	C275.274597,165.690887 274.839142,166.508621 274.241638,167.637100 
	C274.047546,167.925903 274.056732,168.057388 273.991089,168.063477 
	C272.684357,169.526138 270.931671,170.546921 270.128296,172.752945 
	C270.001892,173.242676 269.949646,173.419098 269.811981,173.857941 
	C269.636017,174.264038 269.545441,174.407715 269.280884,174.737457 
	C269.106903,174.923538 269.114471,175.088608 269.032104,175.095062 
	C268.792969,175.241165 268.636230,175.380814 268.271912,175.757263 
	C268.064301,175.994049 268.058533,176.063080 268.023926,176.061768 
	C265.398193,178.898178 262.796143,181.728317 261.251892,185.705414 
	C261.010895,185.954407 261.021423,186.013657 260.991333,186.013077 
	C255.667313,190.181351 252.377213,195.788330 249.673431,202.130280 
	C249.709137,202.470078 249.707565,202.667694 249.610901,202.688110 
	C245.792984,203.074738 246.506577,206.989655 244.688812,209.167236 
	C244.757156,209.510193 244.717667,209.717392 244.614685,209.740173 
	C239.657516,211.360886 237.809784,215.845779 235.364288,219.628296 
	C234.226242,221.388550 233.422928,223.101700 231.079971,223.082504 
	C228.550644,223.061768 227.224075,221.551331 226.599564,219.235779 
	C225.824081,216.360580 222.667130,214.209442 224.097733,210.352692 
	C221.901535,209.150070 220.651291,207.301529 220.686813,205.047272 
	C220.762497,200.244705 218.560638,196.558563 215.713943,193.012512 
	C213.935867,190.797638 212.234375,188.441559 213.955032,185.347504 
	C214.298035,184.730698 214.294266,183.921448 213.671707,183.560349 
	C207.068192,179.730255 207.178619,172.026352 203.906113,166.291351 
	C202.369614,163.598663 201.118866,160.442520 199.793381,157.355515 
	C199.447479,157.372940 199.475632,157.480652 199.421005,157.491333 
	C198.499069,153.730545 197.616730,149.964096 195.495377,146.265198 
	C195.278641,145.991989 195.087280,145.562454 195.027252,145.335114 
	C194.775177,144.829071 194.613037,144.534439 194.419250,144.006409 
	C194.345581,143.795380 194.328979,143.392197 194.367432,143.087952 
	C194.405884,142.783707 194.066681,142.740479 193.888702,142.665283 
	C193.710724,142.590088 193.422791,142.301727 193.329681,142.120483 
	C193.236572,141.939255 193.092865,141.509460 193.039597,141.289230 
	C192.096939,138.397842 191.644165,135.528885 189.335678,133.144257 
	C189.151566,132.871277 189.038361,132.489136 189.001450,132.293304 
	C188.210220,130.656662 188.199020,128.962296 187.171555,127.279343 
	C186.935455,127.024567 186.994492,127.003273 186.976318,127.028862 
	C186.318115,125.872162 186.197540,124.567375 186.099030,122.874359 
	C186.366196,121.681671 186.886307,121.141533 188.026764,120.755119 
	C188.662521,120.700203 188.918411,120.710411 189.495270,120.931641 
	C190.119461,121.553459 190.422653,121.964272 190.812103,122.618294 
	C191.103912,123.127121 191.330719,123.373299 191.687408,123.828140 
	C192.123993,124.510246 192.448944,124.967026 192.895432,125.681450 
	C193.229233,126.183556 193.445541,126.424385 193.859375,126.808258 
	C194.052856,126.954933 194.085083,126.973686 194.082825,126.992188 
	C194.740417,128.170959 194.588120,129.744263 196.216095,130.460068 
	C196.538422,130.344025 196.659760,130.357925 196.669876,130.418152 
	C197.055954,132.748428 198.525742,134.250961 200.499344,135.791183 
	C200.794388,136.177261 200.844223,136.344162 200.944626,136.767395 
	C201.474289,137.421890 201.481628,138.022156 201.829987,138.774414 
	C202.290070,139.174637 202.570633,139.353714 202.945312,139.770935 
	C203.190445,140.169937 203.341461,140.330826 203.740753,140.710602 
	C203.989029,140.929474 204.068741,140.931305 204.069641,140.971161 
	C204.200607,141.158615 204.330673,141.306213 204.611572,141.707413 
	C205.100906,142.454788 205.439392,142.948563 205.889038,143.724579 
	C206.266708,144.312820 206.483582,144.648911 206.731689,145.270935 
	C206.841797,145.509109 207.061493,145.953033 207.205048,146.143311 
	C207.348602,146.333572 207.668854,146.674759 207.835724,146.838776 
	C208.278198,147.178299 208.553818,147.353821 208.907196,147.768463 
	C209.145554,148.162231 209.306168,148.316864 209.706512,148.704742 
	C209.946228,148.937973 210.056702,148.936737 210.058899,148.991943 
	C210.194702,149.183411 210.328308,149.319702 210.603729,149.704681 
	C210.797089,150.123596 210.848633,150.293823 210.952271,150.725677 
	C211.719894,151.798813 211.928192,152.983856 213.227417,153.472687 
	C213.533096,153.354797 213.638596,153.372452 213.646393,153.425354 
	C214.736404,157.603943 217.136810,160.853760 220.645447,163.748734 
	C220.937302,163.936295 221.072647,163.915558 221.085052,163.982895 
	C221.219467,164.186478 221.341507,164.322739 221.621765,164.683136 
	C221.821762,165.089676 221.863541,165.272095 221.952606,165.731232 
	C222.847580,167.186005 223.058426,168.822479 224.773529,169.763107 
	C225.003494,169.984482 225.005371,169.995316 225.010895,169.996429 
	C225.405640,170.535141 225.760391,171.100266 226.500732,171.778305 
	C226.972000,172.361313 227.199753,172.717987 227.595520,173.346527 
	C229.793823,177.543533 232.232529,178.037766 234.275909,174.275421 
	C236.604889,169.987198 240.290527,166.479019 241.739471,161.311279 
	C241.916641,161.014206 241.936005,160.912704 241.987106,160.920410 
	C245.592926,159.275314 247.401932,156.463577 247.798187,152.314850 
	C248.011032,152.057068 248.004456,151.997604 248.032913,152.006836 
	C252.753983,150.077972 252.756638,144.782410 255.785797,141.242096 
	C262.282074,131.480392 268.626343,122.017578 274.790649,112.438927 
	C275.392487,111.503723 275.961090,111.016434 277.059509,110.356308 
	C279.336945,108.534515 281.741760,109.022552 284.028992,109.018608 
	C319.780823,108.956985 355.532745,109.069862 391.764954,108.885452 
	C392.863770,108.620293 393.497925,108.536446 394.567261,108.809631 
	C394.986694,109.046906 395.019989,108.993347 395.042236,109.015709 
	C395.172302,109.196419 395.280121,109.354774 395.191711,109.723083 
	C394.971008,110.102676 394.946472,110.272324 394.872925,110.694366 
	C394.708740,111.141083 394.593567,111.335403 394.256348,111.785675 
	C393.696655,112.494286 393.358978,112.946953 392.901886,113.657394 
	C392.488647,114.410316 392.154785,114.887825 392.104645,115.773514 
	C380.542480,134.341125 368.968231,152.620163 357.392853,170.898468 
	C343.488892,192.853729 329.628723,214.837036 315.619751,236.725098 
	C313.967773,239.306198 313.750916,241.451965 315.352936,243.933502 
	C325.666595,259.909424 336.036743,275.849365 346.256531,291.885132 
	C353.253052,302.863403 359.840668,314.106293 366.994476,324.978638 
	C370.744141,330.677429 374.363800,336.443390 377.977844,342.612671 
	C378.681976,343.757843 378.877655,344.814178 379.796692,345.783112 
	C380.014679,345.994873 379.998474,346.001221 380.002563,345.993164 
	C380.679016,346.750610 380.872620,347.807465 381.790466,348.765411 
	C382.009369,348.974030 382.007324,348.991058 382.015747,348.990631 
	C382.224854,349.236969 382.448822,349.460419 382.873474,349.818573 
	C406.478851,386.952850 429.984344,423.880554 452.872162,461.605164 
	C453.860779,463.372955 453.404327,464.182739 451.377930,464.223694 
	C444.359497,460.195251 438.876129,454.830933 433.619141,449.532867 
	C427.750610,443.618408 422.022003,437.446808 416.288818,431.379303 
	C410.944092,425.722931 406.402740,419.472473 401.500519,413.553589 
	C387.972168,397.219696 375.440277,380.083527 363.238068,362.708740 
	C349.718475,343.458038 335.741699,324.528870 322.045074,305.401642 
	C317.914124,299.632904 314.053345,293.670654 310.019897,287.446350 
	C309.492340,286.500000 308.949158,285.965363 308.184326,285.249207 
	C307.966614,285.063995 307.964539,285.041016 307.955170,285.034302 
	C307.808136,284.865143 307.670502,284.702667 307.381958,284.258728 
	C307.231049,283.977203 307.090149,283.529938 307.034210,283.302246 
	C306.772369,282.823212 306.559113,282.578278 306.152893,282.182007 
	C305.967255,282.024292 305.998779,282.000000 305.981995,282.012451 
	C305.384613,279.809540 304.291992,277.918549 302.208801,276.274170 
	C301.955597,276.053680 301.988251,276.005188 301.975403,276.027740 
	C301.784576,275.790253 301.577454,275.555908 301.155304,275.203552 
	C300.969391,275.059784 300.959869,275.038513 300.949280,275.033691 
	C300.793640,274.853699 300.648560,274.678497 300.228577,274.301208 
	C299.653503,273.628510 299.353363,273.157867 298.996338,272.393066 
	C297.952484,270.115784 296.724854,268.281799 295.218384,266.241730 
	C294.981506,266.009644 295.001221,265.998779 294.995392,266.008423 
	C294.175201,264.810211 293.649323,263.394867 292.200470,262.266663 
	C291.962402,262.061096 291.990387,262.035004 291.972107,262.036285 
	C291.778259,261.770630 291.563568,261.540131 291.127594,261.194366 
	C290.655670,260.584686 290.365967,260.126709 290.009827,259.384827 
	C288.958435,257.993103 288.386230,256.601746 287.217407,255.245087 
	C286.989746,255.026382 286.988068,255.010727 286.980591,255.008301 
	C285.943970,253.558273 285.735748,251.597565 283.835083,250.604523 
	C283.516266,250.713638 283.329132,250.667023 283.307007,250.573151 
	C283.702911,249.505432 282.839325,249.073196 282.204163,248.246704 
	C281.980988,248.043304 281.982635,248.021896 281.972107,248.020111 
	C281.768097,247.772736 281.556976,247.543304 281.156067,247.171661 
	C280.983826,247.013275 281.000000,247.000000 280.991455,247.006393 
	C279.953369,244.021149 277.665771,241.224533 279.743469,237.378021 
	C279.935059,236.975128 279.961029,236.982925 279.962219,236.969513 
	C280.234711,236.774628 280.469147,236.553955 280.822632,236.108627 
	C281.126251,235.362976 281.273956,234.802811 281.687805,234.117889 
	C282.197540,233.774475 282.432526,233.546982 282.823425,233.128601 
	C282.987915,232.946533 283.089691,232.492416 283.137878,232.264771 
	C283.301361,231.845200 283.416656,231.653275 283.742004,231.199265 
	C283.952057,230.937195 283.977173,231.004822 283.956848,230.973419 
	C284.826416,230.340057 285.161621,229.361206 285.790344,228.214844 
	C285.961456,227.964142 286.000183,227.999054 285.976074,227.989380 
	C286.438385,227.582932 286.485992,226.988663 286.819122,226.215256 
	C286.995056,225.986801 287.000671,226.002258 286.992798,225.998611 
	C288.663055,223.602097 291.402985,221.865265 291.793274,218.273102 
	C292.000977,217.997726 292.000000,218.000000 291.998901,218.000732 
	C293.427246,216.324005 294.864594,214.651733 295.785034,212.246796 
	C295.982086,211.981110 296.000000,212.000000 295.989502,211.992035 
	C297.332855,210.789169 298.453857,209.457565 298.781128,207.278015 
	C298.976776,207.010986 298.973145,206.976807 298.990173,206.974518 
	C299.174438,206.811752 299.341675,206.651291 299.731110,206.223419 
	C299.953308,205.956039 300.000000,206.000000 299.973511,205.981842 
	C300.444977,205.578537 300.485992,204.987259 300.785034,204.201019 
	C300.937469,203.958435 300.990540,203.987915 300.969727,203.965576 
	C301.823669,203.334991 302.163483,202.367157 302.773804,201.217560 
	C302.936981,200.963654 302.983185,200.985001 302.967590,200.964844 
	C303.830200,200.328934 304.165985,199.350052 304.810547,198.213333 
	C304.999725,197.975433 305.133545,197.510574 305.213318,197.282227 
	C305.754608,196.560135 306.247803,196.092850 306.790588,195.226837 
	C307.034210,194.788910 307.079895,194.625610 307.203308,194.220123 
	C307.372925,193.795837 307.464722,193.613739 307.757721,193.201172 
	C307.958893,192.970718 307.997498,192.998245 307.981567,192.981033 
	C308.230774,192.779373 308.461670,192.558990 308.808777,192.115631 
	C309.118774,191.367599 309.278259,190.806610 309.702942,190.115631 
	C310.805603,189.328964 311.170319,188.364899 311.794800,187.206055 
	C312.005463,186.793900 312.036316,186.628494 312.144806,186.222946 
	C312.330566,185.803619 312.438690,185.624420 312.754028,185.209366 
	C312.961182,184.973495 312.996582,184.995956 312.982666,184.979935 
	C313.142181,184.813141 313.315552,184.662384 313.697571,184.237396 
z"/>
<path fill="#F22629" opacity="1.000000" stroke="none" 
	d="
M145.230927,321.872253 
	C145.052292,322.095337 144.947693,322.506897 144.877747,322.707336 
	C144.433975,323.570282 143.887741,324.093323 143.209839,324.872589 
	C143.026871,325.087311 142.929642,325.514709 142.847916,325.718079 
	C141.359589,327.653900 140.116684,329.498962 138.868744,331.722809 
	C138.709503,332.234619 138.666290,332.443909 138.725983,332.954285 
	C139.844345,334.347748 141.194778,333.868774 142.735428,334.043213 
	C144.163940,334.438477 145.262192,334.222443 146.710846,334.022095 
	C148.502808,334.017303 149.946671,333.940704 151.733337,334.231781 
	C154.775909,337.196869 153.537781,339.799744 150.906433,341.339539 
	C147.033768,343.605682 145.430359,346.582214 145.507629,350.988464 
	C145.580139,355.124481 143.216873,356.963715 138.228043,357.111969 
	C134.956726,357.209229 131.476135,356.552124 129.353012,360.554688 
	C128.937302,361.318787 128.577057,361.650574 127.794861,362.038696 
	C127.206749,362.246796 126.968742,362.322388 126.391998,362.238037 
	C125.868835,362.041809 125.684418,362.005432 125.223373,362.023621 
	C124.680931,362.164551 124.415123,362.250977 123.739998,362.245911 
	C116.056641,361.833435 108.779968,362.037506 101.088295,362.099640 
	C100.399437,362.214783 100.126564,362.275696 99.453880,362.209961 
	C98.598396,362.031860 98.142715,361.980469 97.343475,361.965210 
	C96.199661,362.000092 95.399414,362.000092 94.299072,361.998444 
	C93.821907,361.989380 93.644829,361.980896 93.208176,362.030151 
	C92.699760,362.181335 92.450905,362.274780 91.814117,362.274292 
	C89.705849,361.508209 86.790710,363.098480 86.776016,359.273071 
	C87.146927,358.376648 87.299950,357.816528 87.718674,357.130066 
	C88.800339,356.321564 89.178680,355.362671 89.746933,354.162537 
	C89.886032,353.889160 90.069130,353.466461 90.147217,353.249786 
	C90.328125,352.840240 90.430962,352.647369 90.767632,352.224609 
	C96.988495,342.659088 102.997032,333.337097 108.957626,323.984528 
	C118.343880,309.256805 127.469330,294.354065 137.246109,279.891022 
	C139.363846,276.758209 140.362320,272.641479 144.061188,270.159546 
	C144.302948,269.689209 144.424408,269.570435 144.703598,269.251465 
	C144.861313,269.051300 144.914200,268.876892 145.004272,268.890808 
	C148.022842,264.535370 151.466309,260.494843 153.807526,255.344482 
	C154.030167,255.080673 154.026886,255.014435 154.058990,255.022705 
	C154.782776,254.302612 155.177628,253.401001 155.713104,252.239899 
	C155.942871,251.818054 156.029205,251.654083 156.204468,251.226715 
	C156.775116,250.540665 157.238190,250.100922 157.751358,249.281357 
	C157.917252,249.007782 157.931137,248.915268 157.977661,248.920197 
	C158.828690,248.291412 159.169937,247.358490 159.761917,246.237778 
	C159.922836,245.991989 159.931763,245.927139 159.964294,245.930847 
	C163.028732,243.750763 164.088089,240.135651 166.215363,237.291672 
	C167.255569,235.900955 166.453735,234.198975 165.469147,233.249039 
	C163.743881,231.584457 163.338257,229.238770 161.751694,227.164520 
	C158.822128,219.412079 161.832108,212.714066 164.438660,206.037048 
	C165.477051,203.377136 164.600067,200.804153 164.868790,198.204437 
	C165.061188,196.343079 165.174942,194.451553 167.142502,193.591949 
	C169.134048,192.721848 170.071884,194.225525 171.148407,195.557053 
	C172.434677,197.147995 174.447708,197.677536 176.503860,198.752350 
	C177.112091,199.464203 177.434143,199.967194 177.884064,200.745728 
	C179.311157,202.999680 179.704575,205.696014 182.692307,206.730377 
	C182.979691,206.896820 183.105392,206.902130 183.105408,206.965042 
	C183.779877,208.290604 184.399918,209.591080 185.761444,210.742828 
	C185.982925,210.955566 186.048950,210.952881 186.049957,210.985901 
	C186.197861,211.176483 186.344772,211.334015 186.717407,211.722748 
	C186.943115,211.953949 187.052322,211.969131 187.045853,212.023880 
	C187.178024,212.202072 187.316666,212.325531 187.580994,212.697479 
	C187.776505,213.110626 187.846344,213.275299 187.965683,213.703644 
	C188.230316,214.201233 188.451340,214.429428 188.850647,214.816437 
	C193.834152,219.433701 197.160248,225.169662 201.946274,229.696564 
	C204.754044,232.352325 201.530975,234.912613 200.243088,237.006821 
	C193.598831,247.810822 185.871017,257.932495 179.931015,269.187073 
	C178.379654,272.126434 174.984665,273.928040 174.401794,277.843994 
	C171.439499,279.388397 170.487076,281.976685 169.246643,284.775421 
	C169.070694,285.067078 169.011551,284.994995 169.046204,285.027618 
	C167.631180,286.179169 166.568695,287.532990 166.242493,289.720581 
	C166.063080,289.998749 166.078796,290.052795 166.051880,290.060944 
	C165.165497,290.683136 164.833649,291.650421 164.192535,292.771118 
	C164.009903,293.009247 164.000000,293.000000 164.005249,293.004364 
	C163.195999,293.671509 162.829681,294.624664 162.190018,295.759186 
	C161.999451,295.994171 162.000610,296.001221 161.996933,296.000549 
	C160.680099,297.463226 159.749100,299.191071 158.735062,301.128845 
	C158.806915,301.445984 158.719482,301.697540 158.596176,301.747772 
	C155.449310,304.901367 153.283707,308.572357 151.234497,312.742554 
	C151.041855,313.037354 151.000000,313.000000 151.020203,313.019897 
	C150.177109,313.668915 149.834610,314.644714 149.204559,315.794464 
	C149.034698,316.046753 149.003860,315.998932 149.029907,316.010437 
	C148.274780,316.738647 148.125488,317.850800 147.228851,318.855438 
	C147.028107,319.089996 146.963089,319.493500 146.913361,319.691711 
	C146.458084,320.541748 145.909348,321.075195 145.230927,321.872253 
z"/>
<path fill="#F2292A" opacity="1.000000" stroke="none" 
	d="
M128.337265,361.223083 
	C128.671768,355.777863 130.497620,354.164001 135.359634,354.669952 
	C137.342026,354.876282 139.298553,355.205627 141.244690,354.628662 
	C142.568558,354.236145 143.917328,353.536438 143.553833,351.913483 
	C142.204803,345.890594 143.722427,341.535248 150.071503,339.581024 
	C151.762665,339.060425 151.925385,337.427826 151.995697,335.508789 
	C153.602158,333.367676 155.722290,334.044556 157.622955,334.032745 
	C169.044495,333.961670 180.466644,334.010712 192.313019,333.983032 
	C193.010239,333.953888 193.283005,333.933807 193.943939,333.820374 
	C197.648224,332.451599 198.869293,329.337952 200.752151,326.321960 
	C200.992584,325.820282 201.037262,325.629852 201.129776,325.149902 
	C201.302139,324.721527 201.426682,324.582611 201.720184,324.220642 
	C201.889160,323.997559 201.894699,323.873871 201.956604,323.873657 
	C209.464752,315.888306 215.040985,306.497620 221.534348,297.797089 
	C222.979202,295.861084 224.803879,294.102295 225.718842,291.378235 
	C225.894333,291.079590 225.890564,290.898529 225.981003,290.893890 
	C228.375778,288.793243 229.697693,285.977570 231.700317,283.255219 
	C231.917358,283.008881 231.934799,282.916046 231.981537,282.922821 
	C233.561783,281.435699 234.544083,279.531250 235.823288,277.852844 
	C238.747040,274.016693 240.288452,274.045380 243.247498,277.724823 
	C243.962006,278.613281 244.768906,279.426788 245.692734,280.630676 
	C245.951385,280.903839 246.083740,280.892242 246.092041,280.958160 
	C246.822998,283.089661 247.690384,285.069672 249.659012,286.734314 
	C249.940689,286.903625 250.087097,286.888702 250.097198,286.961578 
	C250.713577,288.287537 250.624771,289.976379 252.572632,290.723022 
	C252.866196,291.093170 252.899384,291.291901 253.039307,291.773376 
	C253.266525,292.206573 253.387009,292.357025 253.736984,292.683411 
	C253.966476,292.859344 254.129364,292.875549 254.124573,292.957245 
	C255.259995,296.023468 256.308044,299.055542 258.724670,301.753784 
	C259.255005,302.193573 259.547546,302.383820 259.969116,302.807922 
	C260.848877,304.617798 261.739136,306.137665 262.111816,308.250366 
	C261.560669,310.844482 260.951172,313.078461 261.777618,315.755341 
	C264.084534,320.165466 263.932526,324.654602 264.236176,329.085724 
	C264.364105,330.952271 264.517578,332.672485 262.593811,334.178375 
	C262.016876,334.372528 261.771576,334.400909 261.207672,334.240234 
	C260.343140,333.591583 259.797150,333.131927 259.176453,332.411682 
	C260.325226,329.491516 258.067749,329.718170 256.382874,329.092590 
	C254.468292,327.525238 252.847641,326.091705 251.100555,324.357178 
	C250.470367,323.482330 249.932709,322.940948 249.180450,322.209595 
	C248.970596,322.015076 249.002686,321.999054 248.993683,322.014648 
	C248.444260,321.409546 247.810898,320.902588 246.810181,320.588196 
	C246.520325,320.685944 246.349045,320.655365 246.333252,320.569824 
	C243.703354,316.118591 243.271149,316.131287 240.565460,320.968262 
	C240.693268,321.279572 240.727158,321.563599 240.605591,321.638977 
	C236.788971,323.564636 235.972122,327.691193 233.302307,330.791626 
	C233.086792,331.060516 233.044296,331.021484 233.052444,331.049011 
	C232.161926,331.668396 231.838181,332.653656 231.201691,333.792053 
	C231.030258,334.041901 231.000427,333.999969 231.022644,334.013031 
	C230.183350,334.662872 229.834763,335.640228 229.202698,336.796082 
	C229.031708,337.049316 229.002731,337.000000 229.027344,337.014648 
	C228.468948,337.521942 227.940826,338.071747 227.211670,338.823914 
	C227.019135,339.035095 226.998047,338.996155 227.019104,339.003021 
	C226.565582,339.415802 226.513031,340.006622 226.197876,340.791016 
	C226.032532,341.027222 226.000000,341.000000 226.017059,341.011902 
	C225.781693,341.220795 225.547729,341.437714 225.187653,341.865479 
	C225.043091,342.056458 225.018936,342.002594 225.036087,342.030212 
	C222.468445,344.926300 220.354919,348.121307 218.294632,351.767395 
	C218.080231,352.032990 218.059006,352.046844 218.046967,352.050781 
	C217.770187,352.235474 217.531815,352.446075 217.175140,352.876770 
	C217.030457,353.067047 217.018143,353.004730 217.048691,353.013428 
	C216.578308,353.402069 216.513199,353.982910 216.225235,354.772827 
	C216.067993,355.012177 216.073456,355.060516 216.049698,355.065674 
	C215.178299,355.683899 214.836014,356.632599 214.244568,357.772949 
	C214.089035,358.026794 214.091476,358.071014 214.070541,358.078186 
	C213.516449,358.529816 213.010895,359.004150 212.280365,359.745300 
	C212.037857,359.993195 212.036118,360.039490 212.013031,360.037384 
	C211.494019,360.518463 210.998077,361.001678 210.253601,361.725891 
	C210.005447,361.967316 210.011383,362.007812 209.992035,362.001099 
	C209.815231,362.125854 209.657761,362.257263 209.270294,362.184326 
	C208.854492,361.970917 208.668671,361.961823 208.211304,362.017029 
	C207.729935,362.194000 207.520096,362.306671 206.964081,362.331421 
	C203.777115,361.793091 200.923889,362.019043 197.725311,362.166443 
	C197.146210,362.305145 196.915329,362.363983 196.369110,362.254639 
	C194.632309,362.036652 193.210831,361.986908 191.367859,362.010712 
	C190.722443,362.190033 190.498505,362.295807 189.914642,362.309631 
	C186.098923,361.799835 182.634201,362.026703 178.807465,362.146240 
	C178.202927,362.279999 177.962891,362.341400 177.387054,362.243591 
	C176.878845,362.046692 176.706451,362.008972 176.269562,361.982361 
	C174.891098,362.000519 173.777115,362.001160 172.328918,361.993866 
	C171.818314,361.984344 171.641891,361.977203 171.206680,362.026428 
	C170.642075,362.148315 170.336258,362.213928 169.568970,362.192841 
	C157.610977,361.862488 146.112976,362.081635 134.616135,361.986694 
	C132.631714,361.970306 130.611099,362.281158 128.337265,361.223083 
z"/>
<path fill="#EF2328" opacity="1.000000" stroke="none" 
	d="
M176.761780,198.618790 
	C172.892181,199.899475 170.083176,198.553284 168.490570,194.579147 
	C167.902985,195.086411 167.253433,195.420044 167.288269,195.649948 
	C168.548096,203.962646 165.583588,211.353485 162.195953,218.600784 
	C160.896698,221.380325 164.972748,223.789856 162.211609,226.694733 
	C161.855042,227.064896 161.709259,227.205307 161.309326,227.179596 
	C160.759018,226.528168 160.462860,226.042847 160.087601,225.264359 
	C158.924500,223.081924 158.466156,220.792480 156.266296,219.227875 
	C156.040848,218.983063 156.003571,219.007111 156.009476,218.985779 
	C154.861633,217.637451 155.064194,215.538651 153.219788,214.241730 
	C152.982101,214.014008 153.000000,214.000000 152.992691,214.008667 
	C152.568298,213.577209 152.512161,212.992783 152.177429,212.224960 
	C151.996979,212.002335 152.000000,212.000000 151.998779,212.001450 
	C151.834167,211.837769 151.670746,211.672638 151.276733,211.246231 
	C151.046112,210.984970 151.000443,211.003922 151.010345,210.981262 
	C150.548538,210.566620 150.514297,209.984695 150.198883,209.226151 
	C150.031540,209.000122 149.994568,209.008377 150.001297,208.990692 
	C148.709076,205.500641 146.031387,202.837158 144.220306,199.277588 
	C143.976852,199.032745 143.995117,199.005585 143.980865,199.013290 
	C142.752029,197.207077 141.916656,195.154007 140.245209,193.248474 
	C140.016068,193.013260 139.984131,193.012711 139.987350,192.997070 
	C138.971893,191.600830 138.690475,189.805939 137.261536,188.300995 
	C137.034836,188.073456 136.926575,188.078003 136.922333,188.023987 
	C131.452942,177.405609 124.783852,167.570908 118.486313,157.509995 
	C116.206177,153.867264 114.339714,149.966980 111.449402,146.282867 
	C111.172058,145.844055 111.118492,145.686096 111.020462,145.281937 
	C107.089104,137.911011 101.920952,131.497772 98.553879,124.141014 
	C96.074150,118.723053 92.504547,114.163826 89.304535,109.295265 
	C87.594810,106.694054 86.608482,104.165070 89.696472,101.906212 
	C92.178459,100.090645 96.583878,100.965485 98.521202,103.559441 
	C100.072769,105.636879 100.677063,108.505096 103.755173,109.756012 
	C104.279526,110.178398 104.553001,110.359802 104.919373,110.774963 
	C105.170250,111.167458 105.328209,111.326195 105.738190,111.707001 
	C105.990211,111.929070 106.070999,111.929626 106.072571,111.969986 
	C106.585861,112.755966 106.865974,113.611816 107.369217,114.733833 
	C108.016434,116.414391 109.001030,117.237961 110.706009,117.739212 
	C110.994194,117.913773 111.081718,117.909805 111.085953,117.953407 
	C111.211113,118.147324 111.332039,118.297630 111.637550,118.670776 
	C111.857246,119.073761 111.892357,119.253906 111.968163,119.706314 
	C112.238358,120.201294 112.459549,120.431953 112.855011,120.825897 
	C113.037590,120.981239 113.001770,121.003410 113.012840,120.985779 
	C114.048248,122.874130 114.914238,124.868614 116.287643,126.969765 
	C117.373100,130.460083 117.134399,134.593597 122.488892,134.474701 
	C123.049469,134.462234 123.273102,134.507645 123.760544,134.771149 
	C130.725128,140.662933 135.245773,148.188461 140.795639,154.835815 
	C148.958328,164.612701 156.803146,174.654266 164.893494,184.492508 
	C168.739151,189.169006 172.050400,194.316208 176.761780,198.618790 
z"/>
<path fill="#E82227" opacity="1.000000" stroke="none" 
	d="
M103.985939,109.639450 
	C101.272186,110.195656 99.133408,109.807175 98.714287,106.343338 
	C98.545418,104.947701 97.791801,102.377266 95.671448,103.524384 
	C93.556282,104.668678 90.873634,101.046661 89.551216,104.491661 
	C88.658272,106.817841 89.964752,108.955917 91.615967,110.220299 
	C94.119865,112.137611 94.589638,116.992821 99.501984,115.688789 
	C100.756050,115.355881 100.981956,117.124146 100.264725,117.821663 
	C96.658463,121.328758 99.549973,124.207870 101.140442,127.053322 
	C103.159012,130.664642 105.483162,134.109131 107.754875,137.573532 
	C109.133270,139.675598 110.335136,141.830658 110.917435,144.674377 
	C107.331589,141.817062 105.424484,137.366135 102.893547,133.387711 
	C94.917679,120.850311 87.110023,108.205009 79.320175,95.550423 
	C72.188057,83.964317 65.163696,72.311882 58.049019,60.328674 
	C57.291508,58.827621 56.702637,57.631966 57.719563,56.402622 
	C58.564903,55.380703 59.451942,56.125275 60.670113,56.734169 
	C61.043591,56.938297 61.015186,56.988255 61.025948,56.966198 
	C61.216133,57.210052 61.426228,57.448997 61.856056,57.807381 
	C62.045124,57.953781 62.010185,57.999760 62.031952,57.977947 
	C62.196209,58.129894 62.338696,58.303658 62.658524,58.764076 
	C75.430618,74.417725 88.036522,89.775620 100.600975,105.167343 
	C101.720947,106.539337 103.745041,107.180626 103.985939,109.639450 
z"/>
<path fill="#EF2328" opacity="1.000000" stroke="none" 
	d="
M260.764771,309.238953 
	C260.691040,307.261963 260.390594,305.527161 260.094147,303.417053 
	C265.378510,310.944092 271.166107,318.561340 275.809418,326.821808 
	C281.462006,336.877686 288.449371,346.073212 293.972504,356.568207 
	C294.646057,357.731781 294.866394,358.773773 295.769775,359.759583 
	C295.985443,359.974731 296.027496,359.973175 296.025940,359.994171 
	C296.699768,360.774841 296.879150,361.838196 297.814270,362.778809 
	C298.036865,362.982483 297.995972,362.997925 298.008942,362.980225 
	C298.628113,363.955292 298.994415,365.021545 298.029449,365.937683 
	C296.804565,367.100616 295.752960,366.070618 294.315674,365.263794 
	C293.931274,365.052643 293.989197,365.016022 293.980286,365.049103 
	C293.797913,364.805573 293.587738,364.560364 293.149475,364.197083 
	C292.958099,364.047546 292.997040,364.002441 292.973938,364.021301 
	C292.774902,363.781250 292.569733,363.548035 292.152893,363.194946 
	C291.970490,363.049316 291.960358,363.027252 291.948547,363.030273 
	C289.748077,361.221436 288.152252,358.734406 285.273285,357.207458 
	C285.012177,357.003723 284.996338,357.005493 284.996216,356.997681 
	C283.684631,354.660400 282.159546,352.538910 279.302856,351.270599 
	C279.016937,351.105804 278.886383,351.123413 278.874512,351.058594 
	C278.730103,350.817291 278.597534,350.640778 278.206421,350.257538 
	C277.947815,350.050781 277.997559,350.000000 277.970459,350.023926 
	C277.777130,349.777924 277.570557,349.543671 277.170074,349.167023 
	C276.734009,348.806122 276.451477,348.623260 276.092285,348.192200 
	C275.842865,347.795105 275.670135,347.646240 275.259338,347.251740 
	C275.021301,347.006104 274.993958,347.013000 274.994293,346.998901 
	C274.460022,346.458374 273.926971,345.930359 273.170837,345.228851 
	C272.957550,345.045349 273.000000,345.000000 272.977295,345.021118 
	C272.471497,344.463074 271.928070,343.941833 271.180786,343.226135 
	C270.969910,343.038513 271.000000,343.001221 270.983765,343.017853 
	C268.640930,341.362091 267.394012,338.450562 264.243744,337.219727 
	C263.972565,337.027161 264.001221,337.001221 263.989136,337.017029 
	C263.822906,336.860138 263.668793,336.687408 263.257996,336.280792 
	C262.647614,336.017639 262.363556,335.861511 262.048248,335.350922 
	C261.814087,334.929077 261.680908,334.734863 261.773560,334.269104 
	C261.946167,328.176788 261.823303,322.364075 260.012512,316.375671 
	C261.263336,315.093445 261.516663,313.995789 260.655151,312.662842 
	C259.990387,311.634277 259.851105,310.568329 260.764771,309.238953 
z"/>
<path fill="#F02729" opacity="1.000000" stroke="none" 
	d="
M199.602905,157.720398 
	C202.348679,158.917480 203.832703,161.246826 204.532089,164.558609 
	C205.702606,170.101440 208.673233,175.020874 211.107986,180.080841 
	C212.336182,182.633316 215.011765,180.563568 216.986725,180.617905 
	C217.961014,181.937897 217.124359,183.050140 216.503815,183.874237 
	C213.231735,188.219772 215.262054,191.690720 218.836380,193.946594 
	C222.002258,195.944672 223.423416,198.418457 222.540131,201.598465 
	C221.295959,206.077728 223.890274,208.153503 226.885590,210.673691 
	C226.052917,211.145279 224.429169,211.145172 224.730240,212.262177 
	C225.656952,215.700302 227.423462,218.886658 230.255203,221.063812 
	C231.893005,222.323013 232.736145,220.665588 233.261322,219.099045 
	C234.364349,215.808838 236.428238,213.200165 238.873230,210.719772 
	C240.431808,209.138641 241.841599,208.942947 244.102905,209.599472 
	C240.723404,215.793091 236.776016,221.716202 232.210556,227.191711 
	C230.250061,229.542984 229.151382,229.262573 227.898621,226.179199 
	C220.783051,208.665710 213.457870,191.236633 206.098251,173.823517 
	C203.892944,168.605667 201.345810,163.532272 199.602905,157.720398 
z"/>
<path fill="#FF6768" opacity="1.000000" stroke="none" 
	d="
M394.820435,108.638130 
	C394.533356,109.051140 394.080017,109.055367 393.288635,109.095856 
	C392.015320,109.602715 391.004822,109.496620 390.014191,109.495689 
	C352.957336,109.460930 315.900391,109.580437 278.398163,109.220016 
	C278.709290,107.270065 280.250061,108.029213 281.432312,108.028114 
	C318.681244,107.993317 355.930206,108.004547 393.179169,108.019402 
	C393.670868,108.019600 394.162537,108.156342 394.820435,108.638130 
z"/>
<path fill="#D42A2D" opacity="1.000000" stroke="none" 
	d="
M277.716217,109.081779 
	C315.977600,109.008636 354.002411,109.016342 392.488892,109.078087 
	C390.620209,110.445648 388.064819,109.955719 385.602264,109.959343 
	C349.791168,110.012108 313.980011,110.022865 277.717438,110.051285 
	C277.337219,109.760147 277.408447,109.461395 277.716217,109.081779 
z"/>
<path fill="#F02729" opacity="1.000000" stroke="none" 
	d="
M296.514862,137.249847 
	C298.430450,133.452255 302.030243,135.589478 304.761322,135.713028 
	C316.249573,136.232788 327.723358,135.944870 339.200317,135.842010 
	C343.641449,135.802200 344.644287,137.228409 343.033051,141.496689 
	C340.865448,147.239014 336.922943,151.618134 332.338898,155.902405 
	C333.520050,151.008652 337.021149,147.173523 339.768677,142.916794 
	C340.731628,141.424927 341.949921,140.208862 341.425049,138.045822 
	C326.435120,137.058731 311.690277,137.771408 296.514862,137.249847 
z"/>
<path fill="#E82227" opacity="1.000000" stroke="none" 
	d="
M111.162849,146.360153 
	C113.261307,146.356384 114.488518,147.939819 115.249557,149.486664 
	C120.893234,160.957886 129.060867,170.879211 135.114944,182.091110 
	C135.996490,183.723694 136.768738,185.345078 136.917847,187.591034 
	C130.949722,181.139465 127.296722,172.805771 122.283432,165.347504 
	C118.248253,159.344406 114.805626,152.942993 111.162849,146.360153 
z"/>
<path fill="#D42A2D" opacity="1.000000" stroke="none" 
	d="
M60.903877,56.628963 
	C59.105106,56.559032 57.779572,56.951515 58.018948,59.649544 
	C53.365791,54.898537 50.506901,48.664188 47.063652,42.836246 
	C45.858856,40.797039 42.661774,37.312752 44.101189,36.635117 
	C46.871517,35.330910 47.361332,39.614677 48.891361,41.415516 
	C53.001904,46.253609 56.826206,51.334904 60.903877,56.628963 
z"/>
<path fill="#EF2328" opacity="1.000000" stroke="none" 
	d="
M225.580658,291.194824 
	C226.927719,295.361938 223.069229,297.449249 221.288254,300.198120 
	C216.351791,307.817444 210.605164,314.914368 205.106400,322.162903 
	C204.551926,322.893829 203.505264,323.251373 202.352768,323.827820 
	C206.986893,316.816437 211.931351,309.742462 216.933182,302.709290 
	C219.660889,298.873840 222.485870,295.107574 225.580658,291.194824 
z"/>
<path fill="#F02729" opacity="1.000000" stroke="none" 
	d="
M249.951569,202.251907 
	C249.324509,199.288208 251.598755,196.162857 249.683868,192.848434 
	C249.152237,191.928284 250.687576,191.374969 251.763000,191.480911 
	C252.800293,191.583099 254.386032,191.521210 254.237213,190.538239 
	C253.390121,184.942871 258.094666,187.334106 260.614136,186.075439 
	C258.580322,192.164871 253.608215,196.575806 249.951569,202.251907 
z"/>
<path fill="#F02729" opacity="1.000000" stroke="none" 
	d="
M276.366791,164.854492 
	C277.325256,161.448059 275.953278,156.868988 280.450043,154.554871 
	C281.711761,153.905579 281.662506,152.364044 280.601746,151.090897 
	C279.785156,150.110855 278.539764,148.902298 279.991852,147.689117 
	C281.379730,146.529587 282.312592,147.838699 283.292145,148.777664 
	C283.985657,149.442444 284.937225,149.837952 286.145203,150.534607 
	C283.940002,155.877655 279.809296,159.947479 276.366791,164.854492 
z"/>
<path fill="#F02729" opacity="1.000000" stroke="none" 
	d="
M241.593842,161.120422 
	C242.537018,167.009888 237.439560,170.636765 235.626984,175.669479 
	C234.963547,177.511551 231.481781,178.331116 228.871216,177.296570 
	C227.526657,176.763763 225.860916,176.083267 227.502686,173.831512 
	C229.414536,174.445877 230.233856,177.705673 232.812439,173.457367 
	C235.327927,169.313034 238.184113,165.121185 241.593842,161.120422 
z"/>
<path fill="#FF6768" opacity="1.000000" stroke="none" 
	d="
M138.588257,334.112671 
	C138.200150,333.808594 138.144821,333.542328 138.118546,333.408905 
	C138.163086,333.020081 138.233917,332.764648 138.659882,332.687988 
	C157.388504,332.892212 175.761993,332.917633 194.608978,332.923279 
	C195.183502,333.079285 195.284561,333.255066 195.222885,333.687805 
	C195.060135,333.944763 195.012070,333.938782 195.013611,333.962952 
	C193.642349,334.865784 192.106781,334.484558 190.647568,334.480927 
	C173.423843,334.438049 156.199783,334.632690 138.588257,334.112671 
z"/>
<path fill="#E82227" opacity="1.000000" stroke="none" 
	d="
M161.053482,227.376678 
	C161.055191,227.013474 161.528000,226.969543 161.764420,226.947021 
	C168.303375,232.249573 168.545120,240.625671 162.484680,245.940948 
	C162.111771,246.267990 161.239716,246.025940 160.298355,245.991608 
	C160.318695,243.743317 161.626953,242.178970 162.965134,240.472458 
	C164.969467,237.916412 167.337311,235.116394 163.179230,232.043655 
	C162.034882,231.197983 161.737686,229.205902 161.053482,227.376678 
z"/>
<path fill="#D42A2D" opacity="1.000000" stroke="none" 
	d="
M186.988342,121.697128 
	C186.937149,123.420479 186.967728,124.818291 186.978241,126.635277 
	C183.521240,121.330437 181.988647,114.775520 179.050613,108.829910 
	C178.868484,108.461365 177.917770,107.742035 178.955688,107.286133 
	C179.693192,106.962181 180.662277,106.799240 180.932022,107.940369 
	C181.705826,111.214073 184.704880,113.183525 185.883148,116.609543 
	C186.394897,118.405853 187.559143,119.692429 186.988342,121.697128 
z"/>
<path fill="#EF2328" opacity="1.000000" stroke="none" 
	d="
M245.922882,280.553833 
	C242.807159,280.701416 242.386810,275.590179 238.791306,276.654388 
	C235.965897,277.490601 235.674225,281.213593 233.161270,282.640869 
	C233.020416,282.720856 232.851990,282.752350 232.362335,282.868011 
	C232.869919,278.264648 236.999283,275.890686 239.599274,272.483887 
	C240.309937,271.552673 242.137680,273.488739 242.909897,274.688080 
	C244.038315,276.440643 244.912079,278.357208 245.922882,280.553833 
z"/>
<path fill="#FFFFFF" opacity="1.000000" stroke="none" 
	d="
M296.053955,137.037933 
	C310.889008,137.115921 325.702423,137.178116 340.841736,137.527557 
	C326.462769,137.862350 311.757874,137.909897 296.592590,137.960968 
	C295.978760,137.827255 295.825317,137.689987 295.862610,137.309845 
	C296.053314,137.066956 296.032257,137.022141 296.053955,137.037933 
z"/>
<path fill="#D42A2D" opacity="1.000000" stroke="none" 
	d="
M127.792099,361.033813 
	C139.988281,360.921722 151.976288,360.930359 163.963989,360.997559 
	C165.777863,361.007751 167.590225,361.290344 169.775314,361.646301 
	C167.735855,363.273468 165.080780,362.087189 162.182114,362.721375 
	C161.784775,362.891937 161.499847,363.048126 161.357361,362.970093 
	C150.027512,361.951019 138.814117,362.847107 127.232208,362.130829 
	C127.091202,361.621674 127.337517,361.397644 127.792099,361.033813 
z"/>
<path fill="#D42A2D" opacity="1.000000" stroke="none" 
	d="
M294.058197,365.349487 
	C295.410187,364.957947 297.545654,366.702911 297.989288,363.289246 
	C301.983551,365.904846 302.783081,370.941193 305.864471,374.759247 
	C301.939789,375.404175 301.005188,371.808075 298.628235,369.826782 
	C297.018280,368.208221 295.601715,366.927277 294.058197,365.349487 
z"/>
<path fill="#F02729" opacity="1.000000" stroke="none" 
	d="
M295.701447,137.116852 
	C296.053314,137.066956 296.024323,137.521729 296.078278,137.743118 
	C293.154572,142.003082 290.176941,146.041656 286.956970,150.290192 
	C286.245331,146.692535 290.988464,139.368515 295.701447,137.116852 
z"/>
<path fill="#E82227" opacity="1.000000" stroke="none" 
	d="
M123.971039,134.642059 
	C123.852036,134.998734 123.679718,135.008224 123.248764,135.028641 
	C120.785904,136.038620 119.495735,134.811630 118.547066,133.086090 
	C117.661331,131.475021 116.748444,129.899963 115.275238,128.254547 
	C114.611603,125.820976 112.689980,124.133987 113.022263,121.347649 
	C117.102905,125.044403 120.561203,129.628036 123.971039,134.642059 
z"/>
<path fill="#FFFFFF" opacity="1.000000" stroke="none" 
	d="
M126.653786,361.926941 
	C138.121262,361.960175 149.397629,362.074677 160.944427,362.540588 
	C149.612839,362.885559 138.010834,362.879089 126.231041,362.475403 
	C126.053261,362.078156 126.462677,362.008209 126.653786,361.926941 
z"/>
<path fill="#F02729" opacity="1.000000" stroke="none" 
	d="
M255.678467,141.122360 
	C256.247467,144.805832 250.735626,147.623215 254.759857,152.323654 
	C252.301254,152.195786 250.556976,152.105057 248.437012,152.015198 
	C250.497177,148.433762 252.932999,144.851456 255.678467,141.122360 
z"/>
<path fill="#D42A2D" opacity="1.000000" stroke="none" 
	d="
M100.175194,362.130371 
	C107.674843,360.179443 115.544312,360.911652 123.782776,361.645691 
	C121.741173,363.273010 119.084000,362.087616 116.182556,362.721313 
	C113.540192,362.931213 111.295525,362.970490 108.632957,362.950867 
	C105.688972,362.020538 103.060242,362.796967 100.175194,362.130371 
z"/>
<path fill="#F02729" opacity="1.000000" stroke="none" 
	d="
M247.703827,152.164322 
	C248.023163,152.867569 247.841354,153.740479 248.078781,154.478485 
	C249.658737,159.389175 247.197723,160.929245 242.428696,160.939514 
	C243.019028,157.544098 245.935928,155.358536 247.703827,152.164322 
z"/>
<path fill="#E82227" opacity="1.000000" stroke="none" 
	d="
M153.702972,255.182800 
	C153.182770,260.804077 149.485962,264.797028 145.410797,268.828552 
	C146.530563,263.559631 150.662460,259.853577 153.702972,255.182800 
z"/>
<path fill="#F02729" opacity="1.000000" stroke="none" 
	d="
M261.363708,185.910751 
	C259.328156,180.215530 263.612335,178.384109 267.687836,176.139542 
	C266.452637,179.683884 264.255280,182.884674 261.363708,185.910751 
z"/>
<path fill="#F02729" opacity="1.000000" stroke="none" 
	d="
M195.218842,146.372803 
	C197.560349,146.140610 199.181549,147.007507 198.588959,149.637238 
	C198.017059,152.175110 200.745728,154.134750 199.515503,157.100311 
	C197.065216,154.270996 196.268631,150.451050 195.218842,146.372803 
z"/>
<path fill="#F02729" opacity="1.000000" stroke="none" 
	d="
M220.805374,163.625137 
	C217.185867,165.318268 216.854523,162.062317 215.672775,160.016510 
	C214.633057,158.216537 213.313309,156.506027 213.549927,153.862305 
	C215.993927,156.756851 218.333679,160.035416 220.805374,163.625137 
z"/>
<path fill="#D42A2D" opacity="1.000000" stroke="none" 
	d="
M151.355133,312.900574 
	C151.676178,308.270813 154.298965,304.682159 158.139709,301.707825 
	C156.900681,305.885132 154.060333,309.185364 151.355133,312.900574 
z"/>
<path fill="#F02729" opacity="1.000000" stroke="none" 
	d="
M244.998047,209.299927 
	C245.003021,206.545792 243.111786,202.393173 249.111267,202.556122 
	C248.259384,204.949646 247.148834,207.287415 244.998047,209.299927 
z"/>
<path fill="#E82227" opacity="1.000000" stroke="none" 
	d="
M143.997925,199.404022 
	C147.241150,201.269760 149.459671,204.193024 150.005371,208.594360 
	C147.430771,206.285355 144.991241,203.508057 143.997925,199.404022 
z"/>
<path fill="#D42A2D" opacity="1.000000" stroke="none" 
	d="
M233.447266,331.050720 
	C234.279251,327.143951 235.855118,323.497131 240.142548,321.616150 
	C238.167114,324.757721 236.766357,328.456909 233.447266,331.050720 
z"/>
<path fill="#D42A2D" opacity="1.000000" stroke="none" 
	d="
M218.444366,352.032349 
	C218.617111,347.755219 221.332214,344.869293 224.711578,342.123657 
	C223.533539,345.734253 221.312668,348.971680 218.444366,352.032349 
z"/>
<path fill="#EF2328" opacity="1.000000" stroke="none" 
	d="
M195.394470,333.883850 
	C195.074036,333.771515 195.087952,333.598236 195.092163,333.164246 
	C196.832428,330.682953 198.582382,328.462402 200.640137,326.126282 
	C200.805069,329.681610 199.107361,332.313751 195.394470,333.883850 
z"/>
<path fill="#D42A2D" opacity="1.000000" stroke="none" 
	d="
M279.605469,237.135376 
	C279.860504,240.092499 280.149719,243.169571 280.969452,246.601074 
	C279.362854,246.061539 279.389435,243.998718 277.910339,242.785568 
	C274.918365,240.331543 278.748901,239.135742 279.605469,237.135376 
z"/>
<path fill="#D42A2D" opacity="1.000000" stroke="none" 
	d="
M240.836609,321.017761 
	C239.696823,318.972565 240.620453,317.184845 242.745422,316.561127 
	C245.125580,315.862488 246.383652,317.378296 246.432495,320.126434 
	C244.428787,318.423279 242.597717,317.494141 240.836609,321.017761 
z"/>
<path fill="#EF2328" opacity="1.000000" stroke="none" 
	d="
M231.562927,283.017883 
	C231.145813,286.240662 229.740402,289.049316 226.399292,290.837036 
	C226.973160,287.738800 228.992386,285.318512 231.562927,283.017883 
z"/>
<path fill="#F02729" opacity="1.000000" stroke="none" 
	d="
M331.683685,156.136200 
	C331.882935,159.385605 330.510803,162.043137 327.230011,163.884216 
	C326.856262,160.503494 330.136719,158.976654 331.683685,156.136200 
z"/>
<path fill="#EF2328" opacity="1.000000" stroke="none" 
	d="
M258.931885,301.639160 
	C255.206238,300.534821 254.681046,297.143768 254.099823,293.418427 
	C256.455841,295.353363 257.235687,298.571320 258.931885,301.639160 
z"/>
<path fill="#D42A2D" opacity="1.000000" stroke="none" 
	d="
M169.375275,284.922241 
	C169.443329,281.969635 169.500916,278.677032 173.817917,277.942535 
	C172.623688,280.282166 171.151779,282.529785 169.375275,284.922241 
z"/>
<path fill="#D42A2D" opacity="1.000000" stroke="none" 
	d="
M264.090454,337.340942 
	C267.684509,336.980011 269.214386,339.667145 270.837158,342.717896 
	C267.590210,342.653778 266.581024,339.297729 264.090454,337.340942 
z"/>
<path fill="#D42A2D" opacity="1.000000" stroke="none" 
	d="
M285.128296,357.317780 
	C288.577789,357.140778 290.117920,359.857574 291.883057,362.694794 
	C288.647339,362.544464 287.498566,359.403381 285.128296,357.317780 
z"/>
<path fill="#D42A2D" opacity="1.000000" stroke="none" 
	d="
M291.692596,218.158630 
	C292.213531,221.529724 290.685303,224.090866 287.314880,225.901779 
	C287.118317,222.672424 290.674438,221.311676 291.692596,218.158630 
z"/>
<path fill="#F02729" opacity="1.000000" stroke="none" 
	d="
M270.413879,173.049591 
	C268.112000,169.458710 271.610718,169.425735 273.594788,168.124969 
	C273.776825,170.296753 272.204926,171.620178 270.413879,173.049591 
z"/>
<path fill="#D42A2D" opacity="1.000000" stroke="none" 
	d="
M139.141235,332.557129 
	C138.862411,332.937378 138.709824,333.007996 138.324738,333.177063 
	C138.079010,330.127106 139.572189,327.828339 142.445129,326.024048 
	C142.705399,328.641479 140.722412,330.298462 139.141235,332.557129 
z"/>
<path fill="#D42A2D" opacity="1.000000" stroke="none" 
	d="
M279.142181,351.401245 
	C282.479645,351.118347 284.254913,353.078552 284.982819,356.626465 
	C283.086548,355.225464 281.176971,353.461060 279.142181,351.401245 
z"/>
<path fill="#D42A2D" opacity="1.000000" stroke="none" 
	d="
M189.073151,133.243439 
	C192.544434,134.317719 192.897400,137.376831 193.084900,140.770218 
	C191.655807,138.584534 190.325272,136.100052 189.073151,133.243439 
z"/>
<path fill="#D42A2D" opacity="1.000000" stroke="none" 
	d="
M451.104126,464.350922 
	C451.586426,463.524750 452.203369,463.019836 452.920959,462.218445 
	C453.163208,462.000458 453.411560,462.058838 453.430634,462.160370 
	C453.791138,464.077576 457.369659,465.423248 455.282806,467.370758 
	C454.104675,468.470245 452.844055,465.339233 451.104126,464.350922 
z"/>
<path fill="#FFFFFF" opacity="1.000000" stroke="none" 
	d="
M189.659943,361.696869 
	C190.108429,361.849152 190.516876,362.004181 190.731628,362.044220 
	C186.530945,364.035736 181.918808,362.602966 177.228394,362.477844 
	C177.051239,362.084412 177.483704,362.002289 177.689575,361.924438 
	C181.650818,361.122955 185.439316,361.640594 189.659943,361.696869 
z"/>
<path fill="#E82227" opacity="1.000000" stroke="none" 
	d="
M156.094116,219.324524 
	C158.874084,219.586914 160.007599,221.474518 160.003998,224.597778 
	C157.931381,223.777802 157.297882,221.533752 156.094116,219.324524 
z"/>
<path fill="#EF2328" opacity="1.000000" stroke="none" 
	d="
M182.870880,206.588425 
	C179.412399,207.031479 178.502441,204.615555 178.030884,201.390961 
	C179.595306,202.774185 181.178680,204.527115 182.870880,206.588425 
z"/>
<path fill="#EF2328" opacity="1.000000" stroke="none" 
	d="
M256.182983,329.273895 
	C256.949371,328.276825 257.705902,326.912811 258.974548,327.728394 
	C260.319031,328.592773 259.821289,330.051117 259.287964,331.742401 
	C258.160156,331.297028 257.218597,330.442993 256.182983,329.273895 
z"/>
<path fill="#F02729" opacity="1.000000" stroke="none" 
	d="
M200.728104,135.679993 
	C197.151657,136.285049 196.808258,133.707687 196.571442,130.805206 
	C198.865738,131.405365 198.933395,134.085388 200.728104,135.679993 
z"/>
<path fill="#FFFFFF" opacity="1.000000" stroke="none" 
	d="
M196.226532,362.476990 
	C196.053787,362.086395 196.483627,362.005493 196.688202,361.928162 
	C199.984497,361.119934 203.117188,361.638092 206.672913,361.699890 
	C207.116013,361.855164 207.516998,362.007874 207.728378,362.044617 
	C204.206741,364.014008 200.248245,362.636719 196.226532,362.476990 
z"/>
<path fill="#D42A2D" opacity="1.000000" stroke="none" 
	d="
M295.009644,266.360962 
	C297.507233,266.904877 298.606323,268.857422 298.945984,271.733368 
	C296.682648,270.995972 295.810577,268.890076 295.009644,266.360962 
z"/>
<path fill="#D42A2D" opacity="1.000000" stroke="none" 
	d="
M302.004761,276.393402 
	C304.926239,276.534088 305.983185,278.497101 305.980591,281.646942 
	C304.661438,280.260986 303.357697,278.497040 302.004761,276.393402 
z"/>
<path fill="#F02729" opacity="1.000000" stroke="none" 
	d="
M187.192551,121.974953 
	C185.903229,120.671272 185.358429,119.209869 185.919586,117.219536 
	C186.288940,117.117607 186.561798,117.302444 186.920837,117.723320 
	C187.229675,118.187790 187.447647,118.420639 187.847198,118.807953 
	C188.033524,118.957993 188.004776,118.998428 188.023499,118.981323 
	C188.191803,119.139870 188.341415,119.315514 188.754517,119.715591 
	C189.017975,119.940018 189.072037,119.936714 189.074432,119.963692 
	C189.203629,120.197708 189.330429,120.404755 189.244995,120.907745 
	C188.514694,121.444878 187.996613,121.686058 187.192551,121.974953 
z"/>
<path fill="#D42A2D" opacity="1.000000" stroke="none" 
	d="
M295.667511,212.112396 
	C295.971069,214.552689 294.783020,216.453278 292.326233,217.909637 
	C292.238190,215.570572 294.175079,214.128265 295.667511,212.112396 
z"/>
<path fill="#F2292A" opacity="1.000000" stroke="none" 
	d="
M110.906456,117.619629 
	C108.957565,118.493668 106.910713,119.092201 107.025162,115.397461 
	C107.174965,114.914536 107.328987,114.774506 107.733864,114.820427 
	C108.929375,115.779404 109.874046,116.552444 110.906456,117.619629 
z"/>
<path fill="#D42A2D" opacity="1.000000" stroke="none" 
	d="
M159.069427,301.266785 
	C157.949753,298.878326 159.548752,297.489166 161.661652,296.093689 
	C161.820511,298.069427 160.963608,299.781128 159.069427,301.266785 
z"/>
<path fill="#D42A2D" opacity="1.000000" stroke="none" 
	d="
M86.689362,359.041199 
	C87.608025,361.385895 89.965561,360.731628 91.836731,361.668213 
	C90.762550,363.133270 89.040169,362.183716 87.153107,362.726318 
	C84.513252,361.871185 84.714218,360.586823 86.689362,359.041199 
z"/>
<path fill="#EF2328" opacity="1.000000" stroke="none" 
	d="
M249.812683,286.600464 
	C247.028412,286.399841 246.417465,284.181854 246.099655,281.385071 
	C247.295120,282.781830 248.489899,284.539581 249.812683,286.600464 
z"/>
<path fill="#F02729" opacity="1.000000" stroke="none" 
	d="
M224.968628,169.653809 
	C222.745651,169.998428 221.198547,169.356842 221.955444,166.319641 
	C223.284119,166.841980 224.661255,167.593781 224.968628,169.653809 
z"/>
<path fill="#E82227" opacity="1.000000" stroke="none" 
	d="
M140.035889,193.360291 
	C142.639511,193.813339 143.071396,196.197861 143.911972,198.673706 
	C142.015533,197.726318 141.136276,195.642746 140.035889,193.360291 
z"/>
<path fill="#E82227" opacity="1.000000" stroke="none" 
	d="
M153.018951,214.356293 
	C155.415573,214.392563 156.005569,216.094818 156.009521,218.593262 
	C154.122314,218.171417 153.895370,216.222473 153.018951,214.356293 
z"/>
<path fill="#FFFFFF" opacity="1.000000" stroke="none" 
	d="
M116.239037,362.941986 
	C118.094589,361.073029 120.791504,362.463654 123.709335,361.917725 
	C124.155167,361.845673 124.537338,362.008209 124.742035,362.043182 
	C122.387146,364.113007 119.422401,362.488800 116.239037,362.941986 
z"/>
<path fill="#E82227" opacity="1.000000" stroke="none" 
	d="
M137.060883,188.411209 
	C139.252136,188.605301 139.735291,190.348602 139.978027,192.625000 
	C138.084030,192.214569 137.773056,190.353088 137.060883,188.411209 
z"/>
<path fill="#D42A2D" opacity="1.000000" stroke="none" 
	d="
M283.692810,250.968384 
	C286.451447,250.157761 286.542999,252.374756 286.973816,254.633026 
	C285.092896,254.438797 285.158081,252.275497 283.692810,250.968384 
z"/>
<path fill="#D42A2D" opacity="1.000000" stroke="none" 
	d="
M166.352936,289.833618 
	C165.959549,287.978760 165.916641,285.987976 168.726959,285.130310 
	C169.336929,287.161774 166.903580,287.840424 166.352936,289.833618 
z"/>
<path fill="#FFFFFF" opacity="1.000000" stroke="none" 
	d="
M99.655045,361.930176 
	C102.466713,361.967133 105.086922,362.085175 107.961090,362.547546 
	C105.273804,362.882050 102.332565,362.872162 99.222702,362.472778 
	C99.054077,362.083252 99.463593,362.011230 99.655045,361.930176 
z"/>
<path fill="#FFFFFF" opacity="1.000000" stroke="none" 
	d="
M162.238876,362.941986 
	C164.090393,361.062714 166.786652,362.459503 169.701965,361.916382 
	C170.147339,361.845642 170.534271,362.009216 170.741089,362.045959 
	C168.385590,364.104736 165.423035,362.492981 162.238876,362.941986 
z"/>
<path fill="#D42A2D" opacity="1.000000" stroke="none" 
	d="
M298.672180,207.154816 
	C299.033386,209.011902 299.022430,210.980682 296.329041,211.911835 
	C295.687714,209.867905 297.969879,209.063614 298.672180,207.154816 
z"/>
<path fill="#D42A2D" opacity="1.000000" stroke="none" 
	d="
M172.148697,362.306763 
	C173.065613,360.985413 174.238113,360.835327 175.760559,361.783447 
	C175.011353,363.618927 173.622375,362.916473 172.148697,362.306763 
z"/>
<path fill="#EF2328" opacity="1.000000" stroke="none" 
	d="
M185.962524,210.628998 
	C184.117798,210.685654 183.148956,209.616821 183.104385,207.376495 
	C184.420425,207.799393 185.653946,208.641434 185.962524,210.628998 
z"/>
<path fill="#D42A2D" opacity="1.000000" stroke="none" 
	d="
M291.973083,262.395050 
	C293.890564,262.285675 294.818634,263.435089 294.977112,265.662872 
	C293.700928,265.183716 292.337708,264.417572 291.973083,262.395050 
z"/>
<path fill="#D42A2D" opacity="1.000000" stroke="none" 
	d="
M286.998230,255.388702 
	C288.853455,255.386444 289.511261,256.770386 289.904114,258.756775 
	C287.514160,259.255737 287.716003,257.104004 286.998230,255.388702 
z"/>
<path fill="#D42A2D" opacity="1.000000" stroke="none" 
	d="
M186.946442,127.388306 
	C188.660217,127.972824 189.072739,129.547104 188.982422,131.725128 
	C187.661880,130.941666 186.972122,129.502762 186.946442,127.388306 
z"/>
<path fill="#EF2328" opacity="1.000000" stroke="none" 
	d="
M252.819519,290.581299 
	C250.656891,290.951233 249.973587,289.695587 250.089294,287.393860 
	C251.006882,288.112366 251.906479,289.190277 252.819519,290.581299 
z"/>
<path fill="#D42A2D" opacity="1.000000" stroke="none" 
	d="
M94.130432,362.296875 
	C94.759239,361.219391 95.604065,360.994812 96.788071,361.802856 
	C96.346596,363.393921 95.304375,362.995514 94.130432,362.296875 
z"/>
<path fill="#F02729" opacity="1.000000" stroke="none" 
	d="
M196.350632,130.103226 
	C194.371292,130.767700 194.113403,129.361771 194.070801,127.384766 
	C194.774658,127.961266 195.468750,128.911850 196.350632,130.103226 
z"/>
<path fill="#FFFFFF" opacity="1.000000" stroke="none" 
	d="
M87.206490,362.941925 
	C88.030266,361.244568 89.823647,362.367401 91.731567,361.922729 
	C92.141678,361.850464 92.532837,362.010956 92.740723,362.049438 
	C91.439484,363.944061 89.382561,362.576874 87.206490,362.941925 
z"/>
<path fill="#D42A2D" opacity="1.000000" stroke="none" 
	d="
M147.393280,319.039429 
	C147.085312,317.944794 147.520020,317.001282 148.775055,316.183960 
	C148.788757,317.083191 149.619492,318.624634 147.393280,319.039429 
z"/>
<path fill="#F02729" opacity="1.000000" stroke="none" 
	d="
M213.350922,153.126816 
	C212.080017,153.739655 211.309433,153.115585 211.041321,151.340729 
	C211.725845,151.624481 212.447296,152.261658 213.350922,153.126816 
z"/>
<path fill="#D42A2D" opacity="1.000000" stroke="none" 
	d="
M302.633606,201.077805 
	C302.962769,202.125168 302.813843,203.202271 301.267883,203.850952 
	C300.804047,202.722244 301.460052,201.903351 302.633606,201.077805 
z"/>
<path fill="#D42A2D" opacity="1.000000" stroke="none" 
	d="
M164.312683,292.897308 
	C164.023209,291.864441 164.125458,290.763794 165.704971,290.153137 
	C166.251007,291.335632 165.390305,292.038208 164.312683,292.897308 
z"/>
<path fill="#D42A2D" opacity="1.000000" stroke="none" 
	d="
M311.675476,187.091980 
	C311.964966,188.119965 311.836670,189.223740 310.290253,189.894043 
	C309.832977,188.756943 310.477478,187.925903 311.675476,187.091980 
z"/>
<path fill="#D42A2D" opacity="1.000000" stroke="none" 
	d="
M162.314026,295.891663 
	C162.025879,294.848450 162.177567,293.764313 163.693024,293.101593 
	C164.203613,294.260468 163.575897,295.104218 162.314026,295.891663 
z"/>
<path fill="#F02729" opacity="1.000000" stroke="none" 
	d="
M274.340698,167.822861 
	C274.064819,166.819351 274.197479,165.770401 275.690399,165.158524 
	C276.118317,166.248718 275.390961,166.991913 274.340698,167.822861 
z"/>
<path fill="#D42A2D" opacity="1.000000" stroke="none" 
	d="
M304.690674,198.089905 
	C304.972900,199.128372 304.833679,200.224594 303.272156,200.854660 
	C302.750793,199.677673 303.470581,198.891144 304.690674,198.089905 
z"/>
<path fill="#D42A2D" opacity="1.000000" stroke="none" 
	d="
M149.334930,315.922791 
	C149.036591,314.889038 149.183289,313.802307 150.724518,313.142090 
	C151.150726,314.254211 150.487091,315.074463 149.334930,315.922791 
z"/>
<path fill="#D42A2D" opacity="1.000000" stroke="none" 
	d="
M298.015808,362.658630 
	C296.819977,362.693390 296.173279,361.915405 296.042969,360.346924 
	C297.029327,360.492584 297.879425,361.101593 298.015808,362.658630 
z"/>
<path fill="#F02729" opacity="1.000000" stroke="none" 
	d="
M206.333328,146.999924 
	C205.997787,146.250031 205.998016,145.502243 205.999222,144.380615 
	C207.029037,144.470490 207.929596,145.041656 207.980286,146.673157 
	C207.558090,147.002518 207.113586,147.002274 206.333328,146.999924 
z"/>
<path fill="#D42A2D" opacity="1.000000" stroke="none" 
	d="
M295.952332,359.653900 
	C294.727020,359.680847 294.152496,358.835388 294.048462,357.257507 
	C295.031158,357.433350 295.791046,358.136017 295.952332,359.653900 
z"/>
<path fill="#D42A2D" opacity="1.000000" stroke="none" 
	d="
M195.294434,142.697815 
	C195.057770,143.437012 195.033432,143.914291 194.988159,144.749664 
	C193.922531,144.584045 193.107574,143.888321 193.162079,142.268311 
	C193.623047,141.958496 194.009537,141.977753 194.685989,142.008469 
	C195.152878,142.158585 195.329803,142.297226 195.294434,142.697815 
z"/>
<path fill="#D42A2D" opacity="1.000000" stroke="none" 
	d="
M214.382050,357.902832 
	C214.028625,356.868866 214.135391,355.789032 215.707214,355.157715 
	C216.208923,356.289398 215.456406,357.041351 214.382050,357.902832 
z"/>
<path fill="#D42A2D" opacity="1.000000" stroke="none" 
	d="
M89.574387,353.992615 
	C89.935989,355.060913 89.870102,356.182739 88.308022,356.901428 
	C87.871490,355.797546 88.452667,354.896484 89.574387,353.992615 
z"/>
<path fill="#D42A2D" opacity="1.000000" stroke="none" 
	d="
M231.328857,333.923889 
	C231.025330,332.880951 231.178864,331.799469 232.741821,331.170807 
	C233.145111,332.281555 232.436874,333.070251 231.328857,333.923889 
z"/>
<path fill="#D42A2D" opacity="1.000000" stroke="none" 
	d="
M229.333405,336.930054 
	C229.041977,335.889923 229.181931,334.793732 230.726135,334.126343 
	C231.112503,335.226471 230.446472,336.055389 229.333405,336.930054 
z"/>
<path fill="#D42A2D" opacity="1.000000" stroke="none" 
	d="
M379.996613,345.668182 
	C378.766052,345.705078 378.162323,344.882141 378.052185,343.303101 
	C379.018768,343.485291 379.915985,344.072174 379.996613,345.668182 
z"/>
<path fill="#D42A2D" opacity="1.000000" stroke="none" 
	d="
M381.984680,348.651001 
	C380.745605,348.718140 380.151520,347.890961 380.020050,346.321411 
	C381.004089,346.477295 381.860168,347.087341 381.984680,348.651001 
z"/>
<path fill="#E82227" opacity="1.000000" stroke="none" 
	d="
M107.961609,114.683578 
	C107.984711,115.006363 107.502586,115.029930 107.261765,115.042252 
	C106.703087,114.258865 106.385231,113.463173 106.070755,112.338913 
	C107.112404,112.463219 107.879265,113.131371 107.961609,114.683578 
z"/>
<path fill="#E82227" opacity="1.000000" stroke="none" 
	d="
M159.623520,246.087524 
	C159.928146,247.110443 159.847229,248.188721 158.332794,248.834106 
	C157.979324,247.784393 158.546692,246.933899 159.623520,246.087524 
z"/>
<path fill="#E82227" opacity="1.000000" stroke="none" 
	d="
M155.556091,252.073654 
	C155.937286,253.112274 155.849716,254.173233 154.394684,254.913666 
	C154.039825,253.897156 154.511871,252.975998 155.556091,252.073654 
z"/>
<path fill="#D42A2D" opacity="1.000000" stroke="none" 
	d="
M285.656952,228.075439 
	C285.958435,229.122696 285.804047,230.206116 284.255981,230.849182 
	C283.854553,229.738922 284.482452,228.900635 285.656952,228.075439 
z"/>
<path fill="#D42A2D" opacity="1.000000" stroke="none" 
	d="
M212.375122,359.982697 
	C212.185333,359.141632 212.608856,358.512115 213.754471,358.155701 
	C214.087662,359.057159 213.966782,359.916351 212.375122,359.982697 
z"/>
<path fill="#D42A2D" opacity="1.000000" stroke="none" 
	d="
M227.350159,338.986084 
	C227.188293,338.178833 227.608154,337.516327 228.751862,337.105255 
	C228.955673,337.924347 228.927063,338.868042 227.350159,338.986084 
z"/>
<path fill="#D42A2D" opacity="1.000000" stroke="none" 
	d="
M281.989868,248.343628 
	C282.902863,248.295074 283.571198,248.758362 283.386169,250.164169 
	C282.577759,250.062576 281.962280,249.581711 281.989868,248.343628 
z"/>
<path fill="#D42A2D" opacity="1.000000" stroke="none" 
	d="
M210.344025,361.962494 
	C210.153595,361.121002 210.569244,360.480988 211.694458,360.097778 
	C211.927887,360.930237 212.008591,361.922272 210.344025,361.962494 
z"/>
<path fill="#D42A2D" opacity="1.000000" stroke="none" 
	d="
M145.412323,322.061707 
	C145.149231,321.239044 145.517578,320.556519 146.583527,320.015625 
	C147.084824,320.901184 147.183929,321.850128 145.412323,322.061707 
z"/>
<path fill="#D42A2D" opacity="1.000000" stroke="none" 
	d="
M246.689194,320.934753 
	C247.455872,320.340790 248.239029,320.470032 248.873840,321.718262 
	C248.199142,321.940552 247.355286,321.997345 246.689194,320.934753 
z"/>
<path fill="#D42A2D" opacity="1.000000" stroke="none" 
	d="
M307.969421,285.412659 
	C308.844116,285.201508 309.509094,285.616211 309.897400,286.791718 
	C309.088074,286.975342 308.008026,287.150421 307.969421,285.412659 
z"/>
<path fill="#D42A2D" opacity="1.000000" stroke="none" 
	d="
M392.400269,115.913864 
	C391.355957,115.326530 391.321503,114.661301 392.545441,114.005264 
	C392.749390,114.531898 392.716339,115.148613 392.400269,115.913864 
z"/>
<path fill="#D42A2D" opacity="1.000000" stroke="none" 
	d="
M248.996719,322.355621 
	C249.823608,322.192444 250.505646,322.591614 250.903625,323.753479 
	C250.108185,323.912079 249.060135,324.029205 248.996719,322.355621 
z"/>
<path fill="#D42A2D" opacity="1.000000" stroke="none" 
	d="
M270.996887,343.375580 
	C271.829437,343.185120 272.494507,343.587799 272.885834,344.741821 
	C272.063721,344.958191 271.074585,345.016785 270.996887,343.375580 
z"/>
<path fill="#D42A2D" opacity="1.000000" stroke="none" 
	d="
M143.375809,325.038696 
	C143.434753,324.438812 143.842621,323.790314 144.529144,323.024811 
	C145.001129,323.890259 145.095688,324.821289 143.375809,325.038696 
z"/>
<path fill="#D42A2D" opacity="1.000000" stroke="none" 
	d="
M272.985992,345.386719 
	C273.797943,345.197357 274.470032,345.582001 274.911865,346.692078 
	C274.076263,346.972931 273.096924,347.057068 272.985992,345.386719 
z"/>
<path fill="#D42A2D" opacity="1.000000" stroke="none" 
	d="
M306.703430,195.035858 
	C306.603088,195.582443 306.217651,196.212677 305.562683,196.948395 
	C305.668182,196.409103 306.043274,195.764297 306.703430,195.035858 
z"/>
<path fill="#F02729" opacity="1.000000" stroke="none" 
	d="
M226.749146,171.717072 
	C226.213120,171.518875 225.682007,171.033096 225.083664,170.272430 
	C225.595642,170.474854 226.174850,170.952164 226.749146,171.717072 
z"/>
<path fill="#E82227" opacity="1.000000" stroke="none" 
	d="
M157.643829,249.074966 
	C157.551224,249.602936 157.185196,250.198074 156.556274,250.878265 
	C156.652405,250.356262 157.011398,249.749191 157.643829,249.074966 
z"/>
<path fill="#D42A2D" opacity="1.000000" stroke="none" 
	d="
M286.702057,226.094727 
	C286.792786,226.522919 286.590546,227.059021 286.170105,227.787415 
	C286.104309,227.387360 286.256683,226.795013 286.702057,226.094727 
z"/>
<path fill="#E82227" opacity="1.000000" stroke="none" 
	d="
M152.027756,212.308258 
	C152.292694,212.485046 152.588409,212.967758 152.934753,213.733917 
	C152.676437,213.549622 152.367477,213.081894 152.027756,212.308258 
z"/>
<path fill="#D42A2D" opacity="1.000000" stroke="none" 
	d="
M216.344666,354.887024 
	C216.256195,354.473663 216.444427,353.935150 216.855957,353.209412 
	C216.926620,353.602081 216.773987,354.181976 216.344666,354.887024 
z"/>
<path fill="#D42A2D" opacity="1.000000" stroke="none" 
	d="
M226.313354,340.900024 
	C226.224808,340.486206 226.417099,339.945190 226.824768,339.207031 
	C226.891479,339.597534 226.742828,340.185181 226.313354,340.900024 
z"/>
<path fill="#F02729" opacity="1.000000" stroke="none" 
	d="
M201.958923,138.700165 
	C201.711105,138.523148 201.412689,138.050735 201.054718,137.301025 
	C201.299561,137.484085 201.603928,137.944412 201.958923,138.700165 
z"/>
<path fill="#D42A2D" opacity="1.000000" stroke="none" 
	d="
M300.644653,204.067902 
	C300.749786,204.496292 300.562073,205.034149 300.160706,205.767853 
	C300.081940,205.368256 300.216858,204.772797 300.644653,204.067902 
z"/>
<path fill="#E82227" opacity="1.000000" stroke="none" 
	d="
M150.056931,209.303665 
	C150.324356,209.469193 150.617172,209.938248 150.965118,210.682968 
	C150.300110,210.790970 150.126251,210.244186 150.056931,209.303665 
z"/>
<path fill="#D42A2D" opacity="1.000000" stroke="none" 
	d="
M277.998718,350.291748 
	C278.201843,350.208069 278.423065,350.402679 278.737091,350.814148 
	C278.495117,351.010406 278.224121,350.856720 277.998718,350.291748 
z"/>
<path fill="#D42A2D" opacity="1.000000" stroke="none" 
	d="
M188.963913,119.688614 
	C188.726349,119.808884 188.481659,119.617683 188.163055,119.165314 
	C188.331421,119.121880 188.620636,119.279541 188.963913,119.688614 
z"/>
<path fill="#D42A2D" opacity="1.000000" stroke="none" 
	d="
M382.972046,349.730194 
	C382.740082,349.857666 382.481628,349.667480 382.149902,349.198120 
	C382.313812,349.154755 382.603485,349.319275 382.972046,349.730194 
z"/>
<path fill="#D42A2D" opacity="1.000000" stroke="none" 
	d="
M277.075439,349.235382 
	C277.314270,349.131195 277.555115,349.339203 277.841217,349.830444 
	C277.673676,349.859131 277.404022,349.670441 277.075439,349.235382 
z"/>
<path fill="#D42A2D" opacity="1.000000" stroke="none" 
	d="
M90.748184,352.057312 
	C90.926224,352.287384 90.781357,352.540039 90.396080,352.892944 
	C90.315178,352.728699 90.405052,352.424255 90.748184,352.057312 
z"/>
<path fill="#F02729" opacity="1.000000" stroke="none" 
	d="
M269.313599,174.883865 
	C269.182373,174.702560 269.300110,174.507019 269.593323,174.228638 
	C269.896820,174.429871 269.828033,174.671143 269.313599,174.883865 
z"/>
<path fill="#D42A2D" opacity="1.000000" stroke="none" 
	d="
M189.227951,121.179398 
	C189.031067,121.001175 189.029358,120.798653 189.052231,120.293396 
	C189.357498,120.191956 189.638153,120.393250 189.867538,120.868591 
	C189.816269,121.142647 189.423126,121.155106 189.227951,121.179398 
z"/>
<path fill="#D42A2D" opacity="1.000000" stroke="none" 
	d="
M217.281708,352.996826 
	C217.174118,352.772369 217.373230,352.521759 217.831360,352.184937 
	C217.867599,352.345337 217.700287,352.635956 217.281708,352.996826 
z"/>
<path fill="#D42A2D" opacity="1.000000" stroke="none" 
	d="
M293.014954,364.309387 
	C293.258667,364.193207 293.512207,364.397308 293.845093,364.871033 
	C293.671539,364.911865 293.371674,364.741577 293.014954,364.309387 
z"/>
<path fill="#E82227" opacity="1.000000" stroke="none" 
	d="
M112.951157,120.739029 
	C112.754814,120.819489 112.506706,120.615570 112.151062,120.174026 
	C112.294151,120.151337 112.579437,120.324074 112.951157,120.739029 
z"/>
<path fill="#D42A2D" opacity="1.000000" stroke="none" 
	d="
M191.841095,123.758667 
	C191.576141,123.806305 191.353241,123.559143 191.014359,123.086739 
	C191.226639,123.062286 191.554901,123.263077 191.841095,123.758667 
z"/>
<path fill="#D42A2D" opacity="1.000000" stroke="none" 
	d="
M292.028809,363.300171 
	C292.270721,363.174805 292.519196,363.367096 292.833405,363.833221 
	C292.662933,363.877136 292.375000,363.714081 292.028809,363.300171 
z"/>
<path fill="#D42A2D" opacity="1.000000" stroke="none" 
	d="
M209.088867,362.208862 
	C209.040314,361.979980 209.507050,361.961700 209.739868,361.978058 
	C209.818542,362.376343 209.831253,363.072601 209.088867,362.208862 
z"/>
<path fill="#D42A2D" opacity="1.000000" stroke="none" 
	d="
M308.701599,191.995087 
	C308.836487,192.239609 308.644226,192.499146 308.174072,192.835510 
	C308.125031,192.663071 308.284454,192.362320 308.701599,191.995087 
z"/>
<path fill="#F02729" opacity="1.000000" stroke="none" 
	d="
M204.803986,141.725998 
	C204.559677,141.788727 204.388428,141.589386 204.159576,141.187012 
	C204.427673,141.011459 204.686020,141.171448 204.803986,141.725998 
z"/>
<path fill="#D42A2D" opacity="1.000000" stroke="none" 
	d="
M193.981186,126.699371 
	C193.748138,126.815582 193.489120,126.616699 193.146393,126.148682 
	C193.314484,126.107330 193.612000,126.275566 193.981186,126.699371 
z"/>
<path fill="#D42A2D" opacity="1.000000" stroke="none" 
	d="
M312.729370,185.051010 
	C312.885559,185.253647 312.744904,185.496063 312.380859,185.841766 
	C312.068726,185.619019 312.160431,185.334259 312.729370,185.051010 
z"/>
<path fill="#D42A2D" opacity="1.000000" stroke="none" 
	d="
M313.655273,184.020218 
	C313.803741,184.268997 313.625763,184.521698 313.170593,184.842606 
	C313.113953,184.668381 313.259094,184.372833 313.655273,184.020218 
z"/>
<path fill="#D42A2D" opacity="1.000000" stroke="none" 
	d="
M314.733826,182.073196 
	C314.912567,182.297165 314.775208,182.546463 314.403320,182.897018 
	C314.320892,182.736435 314.403870,182.436523 314.733826,182.073196 
z"/>
<path fill="#D42A2D" opacity="1.000000" stroke="none" 
	d="
M315.730377,180.996872 
	C315.861572,181.220352 315.677399,181.488815 315.216522,181.843048 
	C315.169067,181.681824 315.327484,181.386154 315.730377,180.996872 
z"/>
<path fill="#F02729" opacity="1.000000" stroke="none" 
	d="
M268.296265,175.945953 
	C268.203003,175.743271 268.381653,175.525223 268.774963,175.220703 
	C268.979309,175.456970 268.838837,175.722427 268.296265,175.945953 
z"/>
<path fill="#D42A2D" opacity="1.000000" stroke="none" 
	d="
M291.007141,261.297546 
	C291.250580,261.168121 291.504028,261.361389 291.829773,261.830017 
	C291.658844,261.875885 291.363892,261.714172 291.007141,261.297546 
z"/>
<path fill="#F02729" opacity="1.000000" stroke="none" 
	d="
M209.882599,148.702118 
	C209.687683,148.782852 209.459274,148.591736 209.122955,148.186111 
	C209.339294,148.021759 209.617310,148.174652 209.882599,148.702118 
z"/>
<path fill="#D42A2D" opacity="1.000000" stroke="none" 
	d="
M306.027283,282.285156 
	C306.271118,282.170563 306.525604,282.377563 306.854492,282.859924 
	C306.681274,282.898346 306.384277,282.722198 306.027283,282.285156 
z"/>
<path fill="#F02729" opacity="1.000000" stroke="none" 
	d="
M210.785889,149.723480 
	C210.545898,149.790833 210.376511,149.601257 210.149231,149.215881 
	C210.413574,149.028915 210.668625,149.177734 210.785889,149.723480 
z"/>
<path fill="#D42A2D" opacity="1.000000" stroke="none" 
	d="
M299.704529,206.024933 
	C299.836426,206.257401 299.654572,206.512390 299.207458,206.846619 
	C299.156738,206.679428 299.306274,206.386627 299.704529,206.024933 
z"/>
<path fill="#D42A2D" opacity="1.000000" stroke="none" 
	d="
M394.306946,111.983063 
	C394.125885,111.745636 394.279053,111.485985 394.658875,111.104713 
	C394.742493,111.272675 394.661041,111.598587 394.306946,111.983063 
z"/>
<path fill="#D42A2D" opacity="1.000000" stroke="none" 
	d="
M301.018005,275.319641 
	C301.263397,275.196014 301.511139,275.390961 301.837616,275.847473 
	C301.663910,275.893341 301.365265,275.736420 301.018005,275.319641 
z"/>
<path fill="#D42A2D" opacity="1.000000" stroke="none" 
	d="
M300.013489,274.344238 
	C300.260315,274.193787 300.510742,274.368927 300.821808,274.826721 
	C300.650269,274.882355 300.361816,274.735840 300.013489,274.344238 
z"/>
<path fill="#E82227" opacity="1.000000" stroke="none" 
	d="
M144.646332,269.065887 
	C144.784393,269.277405 144.655762,269.468750 144.328461,269.716614 
	C144.028259,269.484283 144.111542,269.241791 144.646332,269.065887 
z"/>
<path fill="#D42A2D" opacity="1.000000" stroke="none" 
	d="
M307.193237,284.225800 
	C307.458984,284.157898 307.645966,284.374054 307.868896,284.826660 
	C307.682343,284.843201 307.418884,284.658813 307.193237,284.225800 
z"/>
<path fill="#E82227" opacity="1.000000" stroke="none" 
	d="
M151.102905,211.233002 
	C151.308563,211.159149 151.538193,211.369202 151.866302,211.809021 
	C151.718292,211.828949 151.438995,211.654999 151.102905,211.233002 
z"/>
<path fill="#EF2328" opacity="1.000000" stroke="none" 
	d="
M186.899719,211.716888 
	C186.697021,211.795715 186.481613,211.603180 186.173920,211.197632 
	C186.405762,211.021713 186.674225,211.175354 186.899719,211.716888 
z"/>
<path fill="#D42A2D" opacity="1.000000" stroke="none" 
	d="
M281.038483,247.267609 
	C281.282898,247.144669 281.530457,247.340988 281.844055,247.810303 
	C281.672119,247.852875 281.382629,247.687393 281.038483,247.267609 
z"/>
<path fill="#D42A2D" opacity="1.000000" stroke="none" 
	d="
M280.724915,235.997559 
	C280.848633,236.233978 280.651154,236.493378 280.174744,236.828705 
	C280.132690,236.661392 280.302002,236.366684 280.724915,235.997559 
z"/>
<path fill="#D42A2D" opacity="1.000000" stroke="none" 
	d="
M282.736511,233.029404 
	C282.786469,233.209610 282.585022,233.472687 282.168762,233.864471 
	C282.131042,233.699524 282.308075,233.405899 282.736511,233.029404 
z"/>
<path fill="#D42A2D" opacity="1.000000" stroke="none" 
	d="
M283.688782,231.008789 
	C283.858582,231.228729 283.708923,231.487839 283.344604,231.875824 
	C283.265900,231.718216 283.345703,231.399307 283.688782,231.008789 
z"/>
<path fill="#EF2328" opacity="1.000000" stroke="none" 
	d="
M187.723541,212.731415 
	C187.518250,212.785919 187.355179,212.603241 187.128433,212.238281 
	C187.355133,212.093399 187.588806,212.239471 187.723541,212.731415 
z"/>
<path fill="#F02729" opacity="1.000000" stroke="none" 
	d="
M221.820587,164.681824 
	C221.566833,164.772263 221.393723,164.597580 221.179062,164.216721 
	C221.447983,164.005417 221.702560,164.140808 221.820587,164.681824 
z"/>
<path fill="#EF2328" opacity="1.000000" stroke="none" 
	d="
M188.934219,214.744064 
	C188.749512,214.809326 188.507767,214.600845 188.156494,214.161423 
	C188.291916,214.147278 188.568649,214.327225 188.934219,214.744064 
z"/>
<path fill="#D42A2D" opacity="1.000000" stroke="none" 
	d="
M225.297607,341.986572 
	C225.175278,341.752960 225.368423,341.495148 225.828323,341.153381 
	C225.873444,341.321442 225.712784,341.619080 225.297607,341.986572 
z"/>
<path fill="#F02729" opacity="1.000000" stroke="none" 
	d="
M203.927597,140.692841 
	C203.728134,140.780945 203.498856,140.593719 203.170319,140.188416 
	C203.399124,140.002609 203.674698,140.151657 203.927597,140.692841 
z"/>
<path fill="#D42A2D" opacity="1.000000" stroke="none" 
	d="
M263.072205,336.286987 
	C263.287659,336.187744 263.530243,336.382965 263.853027,336.832703 
	C263.699036,336.864258 263.421051,336.695679 263.072205,336.286987 
z"/>
<path fill="#D42A2D" opacity="1.000000" stroke="none" 
	d="
M61.987198,57.695183 
	C61.749767,57.810242 61.499519,57.610249 61.165543,57.148979 
	C61.334229,57.108288 61.631752,57.272434 61.987198,57.695183 
z"/>
<path fill="#D42A2D" opacity="1.000000" stroke="none" 
	d="
M261.721497,334.003082 
	C261.996948,334.185059 261.994446,334.372620 261.969604,334.841736 
	C261.646393,334.939697 261.345490,334.756104 260.966858,334.311890 
	C261.073883,334.037048 261.258698,334.022858 261.721497,334.003082 
z"/>
<path fill="#D42A2D" opacity="1.000000" stroke="none" 
	d="
M62.878654,58.782566 
	C62.600273,58.856133 62.402081,58.628918 62.147499,58.162613 
	C62.342964,58.142223 62.632206,58.328316 62.878654,58.782566 
z"/>
<path fill="#D42A2D" opacity="1.000000" stroke="none" 
	d="
M307.734253,193.054474 
	C307.902039,193.248093 307.778076,193.491241 307.434021,193.839066 
	C307.098755,193.627701 307.174927,193.347778 307.734253,193.054474 
z"/>
<path fill="#D42A2D" opacity="1.000000" stroke="none" 
	d="
M275.095886,347.244141 
	C275.324493,347.112183 275.577057,347.290161 275.897278,347.742004 
	C275.650269,347.943085 275.368561,347.789154 275.095886,347.244141 
z"/>
<path fill="#EF2328" opacity="1.000000" stroke="none" 
	d="
M201.660309,324.034424 
	C201.782806,324.228821 201.641647,324.436432 201.321655,324.740417 
	C201.007446,324.515564 201.092056,324.252533 201.660309,324.034424 
z"/>
<path fill="#D42A2D" opacity="1.000000" stroke="none" 
	d="
M187.958160,118.708839 
	C187.729752,118.825249 187.473419,118.630173 187.135757,118.166061 
	C187.298920,118.126137 187.590851,118.292908 187.958160,118.708839 
z"/>
<path fill="#D42A2D" opacity="1.000000" stroke="none" 
	d="
M395.212708,109.897011 
	C394.995514,109.933037 394.973907,109.481033 395.019165,109.259552 
	C395.284088,109.203384 395.503693,109.368690 395.723328,109.534004 
	C395.625519,109.642998 395.527710,109.751991 395.212708,109.897011 
z"/>
<path fill="#E82227" opacity="1.000000" stroke="none" 
	d="
M111.855423,118.658600 
	C111.599243,118.750481 111.416039,118.567589 111.181351,118.170967 
	C111.451805,117.960938 111.717972,118.103127 111.855423,118.658600 
z"/>
<path fill="#EF2328" opacity="1.000000" stroke="none" 
	d="
M253.927155,292.642883 
	C253.733551,292.736267 253.530548,292.575439 253.251740,292.216492 
	C253.475815,292.014221 253.723068,292.137665 253.927155,292.642883 
z"/>
<path fill="#E82227" opacity="1.000000" stroke="none" 
	d="
M105.920868,111.692726 
	C105.720528,111.786133 105.484390,111.600517 105.147041,111.190475 
	C105.373222,111.005783 105.652969,111.154999 105.920868,111.692726 
z"/>
<path fill="#F02729" opacity="1.000000" stroke="none" 
	d="
M244.300018,196.862335 
	C244.864410,198.944138 244.916931,200.683914 242.367905,200.248535 
	C241.042953,200.022247 239.973190,198.720978 240.482285,197.307907 
	C241.161316,195.423065 242.523560,194.810593 244.300018,196.862335 
z"/>
<path fill="#F02729" opacity="1.000000" stroke="none" 
	d="
M268.296997,168.088623 
	C266.681824,168.475067 265.978516,167.644836 265.684052,166.437500 
	C265.548218,165.880585 266.034027,165.477509 266.591003,165.606415 
	C267.765472,165.878220 268.794739,166.360748 268.296997,168.088623 
z"/>
<path fill="#F02729" opacity="1.000000" stroke="none" 
	d="
M206.001221,147.001221 
	C205.872177,148.275314 205.989716,149.700699 204.451675,150.240204 
	C204.215973,150.322876 203.504791,149.828812 203.454132,149.527435 
	C203.215057,148.104630 204.234283,147.558228 205.677307,147.074020 
	C205.997559,146.997833 206.000000,147.000000 206.001221,147.001221 
z"/>
<path fill="#F02729" opacity="1.000000" stroke="none" 
	d="
M210.149536,166.513794 
	C209.382904,165.967789 209.175323,165.370773 209.756714,164.894211 
	C210.329010,164.425125 210.946869,164.730698 211.207840,165.352432 
	C211.502640,166.054794 211.152969,166.503082 210.149536,166.513794 
z"/>
<path fill="#F02729" opacity="1.000000" stroke="none" 
	d="
M263.547394,175.873764 
	C263.119934,175.029526 263.074188,174.364899 263.775909,173.963623 
	C263.937195,173.871353 264.507965,174.110672 264.575745,174.306335 
	C264.856232,175.115936 265.070923,175.995163 263.547394,175.873764 
z"/>
<path fill="#F02729" opacity="1.000000" stroke="none" 
	d="
M227.001816,210.998291 
	C228.034042,211.186493 229.343796,210.948334 229.497086,212.518112 
	C229.519089,212.743225 229.238190,213.174149 229.036346,213.216171 
	C227.764389,213.480881 227.493973,212.474701 227.065262,211.305481 
	C226.996857,211.003571 227.000000,211.000000 227.001816,210.998291 
z"/>
<path fill="#F02729" opacity="1.000000" stroke="none" 
	d="
M216.581085,173.710022 
	C216.095398,174.333939 215.677048,174.295883 215.458664,173.749725 
	C215.372803,173.535019 215.505020,173.050156 215.686050,172.946152 
	C216.220306,172.639206 216.519333,172.970123 216.581085,173.710022 
z"/>
<path fill="#F02729" opacity="1.000000" stroke="none" 
	d="
M218.374542,168.960526 
	C218.363022,169.468704 218.197693,169.830856 218.032349,170.193008 
	C217.822342,170.007904 217.466293,169.846817 217.431152,169.632980 
	C217.343933,169.102219 217.613495,168.756424 218.374542,168.960526 
z"/>
<path fill="#F02729" opacity="1.000000" stroke="none" 
	d="
M224.984955,188.194534 
	C224.718033,187.784317 224.660309,187.380722 224.602585,186.977142 
	C224.875122,186.984970 225.147675,186.992783 225.420212,187.000595 
	C225.344864,187.400787 225.269501,187.800980 224.984955,188.194534 
z"/>
<path fill="#F02729" opacity="1.000000" stroke="none" 
	d="
M233.649414,209.961685 
	C233.880737,209.872192 234.107666,209.926239 234.334595,209.980286 
	C234.104736,210.021927 233.874863,210.063583 233.649414,209.961685 
z"/>
<path fill="#F02729" opacity="1.000000" stroke="none" 
	d="
M196.058441,141.965485 
	C195.993286,141.993286 196.134872,141.781448 196.134872,141.781448 
	C196.134872,141.781448 196.123596,141.937683 196.058441,141.965485 
z"/>
<path fill="#F02729" opacity="1.000000" stroke="none" 
	d="
M195.255280,142.821106 
	C195.082108,142.959747 195.021667,142.490448 194.998810,142.255188 
	C195.145538,142.014832 195.315094,142.009735 195.738983,141.998962 
	C195.993286,141.993286 195.999817,141.999817 196.001892,142.002884 
	C195.839706,142.254913 195.647873,142.480423 195.255280,142.821106 
z"/>
<path fill="#D42A2D" opacity="1.000000" stroke="none" 
	d="
M138.196106,334.070374 
	C156.825272,333.884827 175.450394,333.961029 194.545319,334.012146 
	C193.295883,335.397369 191.235382,335.011749 189.277344,335.018341 
	C177.165466,335.058807 165.053467,335.060089 152.473907,335.099091 
	C150.269562,335.107086 148.532837,335.090363 146.362122,335.087341 
	C145.263901,335.566925 144.513016,335.495911 143.428131,335.287598 
	C141.472061,334.770660 139.657913,335.626770 138.196106,334.070374 
z"/>
<path fill="#EF2328" opacity="1.000000" stroke="none" 
	d="
M172.038452,201.650421 
	C172.127594,201.881042 172.073669,202.107239 172.019760,202.333420 
	C171.978302,202.104279 171.936844,201.875137 172.038452,201.650421 
z"/>
<path fill="#F2292A" opacity="1.000000" stroke="none" 
	d="
M143.300293,335.287659 
	C143.800018,335.105804 144.509918,335.086243 145.573975,335.083862 
	C145.198181,335.743378 144.408752,335.973724 143.300293,335.287659 
z"/>
<path fill="#F22629" opacity="1.000000" stroke="none" 
	d="
M260.674438,309.128845 
	C260.857819,311.094879 262.370972,312.546143 263.045563,314.322418 
	C264.124847,317.164215 262.426941,316.891724 260.299500,316.134491 
	C260.416809,313.773224 257.697937,311.377655 260.674438,309.128845 
z"/>
<path fill="#D42A2D" opacity="1.000000" stroke="none" 
	d="
M189.744873,361.651367 
	C186.349792,361.895172 182.591171,361.941193 178.363983,361.916870 
	C181.678238,360.376007 185.526749,360.826538 189.744873,361.651367 
z"/>
<path fill="#D42A2D" opacity="1.000000" stroke="none" 
	d="
M206.761566,361.658142 
	C204.017059,361.900482 200.918121,361.945801 197.355957,361.920959 
	C200.012131,360.448944 203.203506,360.805542 206.761566,361.658142 
z"/>
<path fill="#F12428" opacity="1.000000" stroke="none" 
	d="
M115.041061,128.361084 
	C119.308372,128.200562 119.178207,133.304474 122.706528,134.853821 
	C122.442947,139.236359 120.170998,137.304169 118.750175,135.960388 
	C116.743187,134.062210 115.727112,131.432480 115.041061,128.361084 
z"/>
<path fill="#E82227" opacity="1.000000" stroke="none" 
	d="
M94.015678,107.806198 
	C94.282494,108.216545 94.340164,108.620293 94.397827,109.024033 
	C94.125427,109.016258 93.853020,109.008476 93.580612,109.000702 
	C93.655922,108.600327 93.731224,108.199959 94.015678,107.806198 
z"/>
<path fill="#F12428" opacity="1.000000" stroke="none" 
	d="
M212.468781,183.907700 
	C212.526566,183.882187 212.539215,184.120773 212.539215,184.120773 
	C212.539215,184.120773 212.410995,183.933212 212.468781,183.907700 
z"/>
<path fill="#F12428" opacity="1.000000" stroke="none" 
	d="
M234.493149,174.491821 
	C234.513199,174.484314 234.473099,174.499329 234.493149,174.491821 
z"/>
<path fill="#EF2328" opacity="1.000000" stroke="none" 
	d="
M298.463776,369.502106 
	C298.544159,369.460999 298.653442,369.432770 298.641998,369.488098 
	C298.521240,369.571625 298.492706,369.515015 298.463776,369.502106 
z"/>
</svg>